%TF.GenerationSoftware,KiCad,Pcbnew,9.0.0*%
%TF.CreationDate,2025-04-05T15:37:09+05:30*%
%TF.ProjectId,Soldr_project,536f6c64-725f-4707-926f-6a6563742e6b,rev?*%
%TF.SameCoordinates,Original*%
%TF.FileFunction,Copper,L2,Bot*%
%TF.FilePolarity,Positive*%
%FSLAX46Y46*%
G04 Gerber Fmt 4.6, Leading zero omitted, Abs format (unit mm)*
G04 Created by KiCad (PCBNEW 9.0.0) date 2025-04-05 15:37:09*
%MOMM*%
%LPD*%
G01*
G04 APERTURE LIST*
G04 Aperture macros list*
%AMRoundRect*
0 Rectangle with rounded corners*
0 $1 Rounding radius*
0 $2 $3 $4 $5 $6 $7 $8 $9 X,Y pos of 4 corners*
0 Add a 4 corners polygon primitive as box body*
4,1,4,$2,$3,$4,$5,$6,$7,$8,$9,$2,$3,0*
0 Add four circle primitives for the rounded corners*
1,1,$1+$1,$2,$3*
1,1,$1+$1,$4,$5*
1,1,$1+$1,$6,$7*
1,1,$1+$1,$8,$9*
0 Add four rect primitives between the rounded corners*
20,1,$1+$1,$2,$3,$4,$5,0*
20,1,$1+$1,$4,$5,$6,$7,0*
20,1,$1+$1,$6,$7,$8,$9,0*
20,1,$1+$1,$8,$9,$2,$3,0*%
G04 Aperture macros list end*
%TA.AperFunction,HeatsinkPad*%
%ADD10C,0.600000*%
%TD*%
%TA.AperFunction,HeatsinkPad*%
%ADD11R,2.300000X3.000000*%
%TD*%
%TA.AperFunction,ComponentPad*%
%ADD12C,2.500000*%
%TD*%
%TA.AperFunction,ComponentPad*%
%ADD13RoundRect,0.250000X-0.750000X0.600000X-0.750000X-0.600000X0.750000X-0.600000X0.750000X0.600000X0*%
%TD*%
%TA.AperFunction,ComponentPad*%
%ADD14O,2.000000X1.700000*%
%TD*%
%TA.AperFunction,ComponentPad*%
%ADD15RoundRect,0.250001X0.499999X-0.499999X0.499999X0.499999X-0.499999X0.499999X-0.499999X-0.499999X0*%
%TD*%
%TA.AperFunction,ComponentPad*%
%ADD16C,1.500000*%
%TD*%
%TA.AperFunction,ViaPad*%
%ADD17C,0.600000*%
%TD*%
G04 APERTURE END LIST*
D10*
%TO.P,U1,9,EP*%
%TO.N,GND*%
X128397500Y-94400000D03*
X128397500Y-95400000D03*
X128397500Y-96400000D03*
D11*
X129047500Y-95400000D03*
D10*
X129697500Y-94400000D03*
X129697500Y-95400000D03*
X129697500Y-96400000D03*
%TD*%
D12*
%TO.P,TP4,1,1*%
%TO.N,GND*%
X119000000Y-82000000D03*
%TD*%
%TO.P,TP3,1,1*%
%TO.N,/V_{IN}*%
X119000000Y-99000000D03*
%TD*%
%TO.P,TP2,1,1*%
%TO.N,GND*%
X145800000Y-99000000D03*
%TD*%
%TO.P,TP1,1,1*%
%TO.N,/5V*%
X146000000Y-82000000D03*
%TD*%
D13*
%TO.P,J1,1,Pin_1*%
%TO.N,/5V*%
X149667500Y-88850000D03*
D14*
%TO.P,J1,2,Pin_2*%
%TO.N,GND*%
X149667500Y-91350000D03*
%TD*%
D15*
%TO.P,J2,1,Pin_1*%
%TO.N,/V_{IN}*%
X115500000Y-89200000D03*
D16*
%TO.P,J2,2,Pin_2*%
%TO.N,GND*%
X118500000Y-89200000D03*
%TD*%
D17*
%TO.N,GND*%
X131100000Y-79900000D03*
X122500000Y-77000000D03*
X142500000Y-77000000D03*
X132500000Y-77000000D03*
X137500000Y-77000000D03*
X127500000Y-77000000D03*
X150000000Y-97500000D03*
X147500000Y-100000000D03*
X147500000Y-95000000D03*
X142500000Y-95000000D03*
X140000000Y-97500000D03*
X112500000Y-97500000D03*
X117500000Y-87500000D03*
X115000000Y-85000000D03*
X112500000Y-82500000D03*
X127500000Y-82500000D03*
X125000000Y-85000000D03*
X122500000Y-87500000D03*
X122500000Y-82500000D03*
X142500000Y-100000000D03*
X137500000Y-100000000D03*
X155000000Y-97500000D03*
X152500000Y-82500000D03*
X145000000Y-80000000D03*
X147500000Y-77500000D03*
X117500000Y-77500000D03*
X112500000Y-77500000D03*
X107500000Y-82500000D03*
X107500000Y-85000000D03*
X107500000Y-87500000D03*
X107500000Y-90000000D03*
X107500000Y-92500000D03*
X107500000Y-97500000D03*
X150000000Y-102500000D03*
X145000000Y-102500000D03*
X140000000Y-102500000D03*
X135000000Y-102500000D03*
X130000000Y-102500000D03*
X125000000Y-102500000D03*
X120000000Y-102500000D03*
X115000000Y-102500000D03*
X115000000Y-100000000D03*
X115000000Y-80000000D03*
X120000000Y-80000000D03*
X150000000Y-80000000D03*
X155000000Y-87500000D03*
X155000000Y-92500000D03*
X152500000Y-95000000D03*
X147750000Y-91000000D03*
X142750000Y-91250000D03*
X147500000Y-92500000D03*
X143000000Y-92500000D03*
X145250000Y-92500000D03*
X145250000Y-91750000D03*
X145250000Y-91000000D03*
X134000000Y-98500000D03*
X132500000Y-98500000D03*
X125250000Y-99250000D03*
X124250000Y-99250000D03*
X126000000Y-90750000D03*
X126000000Y-91500000D03*
X129250000Y-90750000D03*
X129250000Y-91500000D03*
X129250000Y-92250000D03*
X126000000Y-92250000D03*
X129750000Y-99250000D03*
X129000000Y-99250000D03*
X128250000Y-99250000D03*
X129750000Y-98500000D03*
X129000000Y-98500000D03*
X128250000Y-98500000D03*
X128500000Y-89250000D03*
X128500000Y-90000000D03*
X128500000Y-90750000D03*
X128500000Y-91500000D03*
X129000000Y-93500000D03*
X128250000Y-93500000D03*
X129750000Y-97500000D03*
X129000000Y-97500000D03*
X128250000Y-97500000D03*
X128500000Y-92250000D03*
X125250000Y-92500000D03*
X120500000Y-92000000D03*
X123500000Y-92500000D03*
X123500000Y-90500000D03*
X122491209Y-90482532D03*
X121500000Y-90500000D03*
X118500000Y-90500000D03*
X119500000Y-90500000D03*
X120500000Y-91000000D03*
%TD*%
%TA.AperFunction,Conductor*%
%TO.N,GND*%
G36*
X151528853Y-76520185D02*
G01*
X151574608Y-76572989D01*
X151584552Y-76642147D01*
X151555527Y-76705703D01*
X151549495Y-76712181D01*
X151514453Y-76747222D01*
X151305611Y-77001696D01*
X151305601Y-77001710D01*
X151122718Y-77275414D01*
X151122707Y-77275432D01*
X150967535Y-77565741D01*
X150967528Y-77565755D01*
X150841552Y-77869887D01*
X150745987Y-78184922D01*
X150745984Y-78184933D01*
X150681768Y-78507781D01*
X150681765Y-78507798D01*
X150649500Y-78835403D01*
X150649500Y-79164596D01*
X150681765Y-79492201D01*
X150681768Y-79492218D01*
X150745984Y-79815066D01*
X150745987Y-79815077D01*
X150841552Y-80130112D01*
X150967528Y-80434244D01*
X150967535Y-80434258D01*
X151122707Y-80724567D01*
X151122718Y-80724585D01*
X151305601Y-80998289D01*
X151305611Y-80998303D01*
X151514453Y-81252777D01*
X151747222Y-81485546D01*
X151747227Y-81485550D01*
X151747228Y-81485551D01*
X152001702Y-81694393D01*
X152275421Y-81877286D01*
X152565749Y-82032469D01*
X152869889Y-82158448D01*
X153184913Y-82254010D01*
X153184919Y-82254011D01*
X153184922Y-82254012D01*
X153184933Y-82254015D01*
X153365361Y-82289903D01*
X153507787Y-82318233D01*
X153835400Y-82350500D01*
X153835403Y-82350500D01*
X154164597Y-82350500D01*
X154164600Y-82350500D01*
X154492213Y-82318233D01*
X154669760Y-82282916D01*
X154815066Y-82254015D01*
X154815077Y-82254012D01*
X154815077Y-82254011D01*
X154815087Y-82254010D01*
X155130111Y-82158448D01*
X155434251Y-82032469D01*
X155724579Y-81877286D01*
X155998298Y-81694393D01*
X156252772Y-81485551D01*
X156267176Y-81471147D01*
X156287819Y-81450505D01*
X156349142Y-81417020D01*
X156418834Y-81422004D01*
X156474767Y-81463876D01*
X156499184Y-81529340D01*
X156499500Y-81538186D01*
X156499500Y-99461814D01*
X156479815Y-99528853D01*
X156427011Y-99574608D01*
X156357853Y-99584552D01*
X156294297Y-99555527D01*
X156287819Y-99549495D01*
X156252777Y-99514453D01*
X155998303Y-99305611D01*
X155998302Y-99305610D01*
X155998298Y-99305607D01*
X155724579Y-99122714D01*
X155724574Y-99122711D01*
X155724567Y-99122707D01*
X155434258Y-98967535D01*
X155434251Y-98967531D01*
X155434244Y-98967528D01*
X155130112Y-98841552D01*
X154815077Y-98745987D01*
X154815066Y-98745984D01*
X154492218Y-98681768D01*
X154492213Y-98681767D01*
X154492211Y-98681766D01*
X154492201Y-98681765D01*
X154251522Y-98658061D01*
X154164600Y-98649500D01*
X153835400Y-98649500D01*
X153755540Y-98657365D01*
X153507798Y-98681765D01*
X153507781Y-98681768D01*
X153184933Y-98745984D01*
X153184922Y-98745987D01*
X152869887Y-98841552D01*
X152565755Y-98967528D01*
X152565741Y-98967535D01*
X152275432Y-99122707D01*
X152275414Y-99122718D01*
X152001710Y-99305601D01*
X152001696Y-99305611D01*
X151747222Y-99514453D01*
X151514453Y-99747222D01*
X151305611Y-100001696D01*
X151305601Y-100001710D01*
X151122718Y-100275414D01*
X151122707Y-100275432D01*
X150967535Y-100565741D01*
X150967528Y-100565755D01*
X150841552Y-100869887D01*
X150745987Y-101184922D01*
X150745984Y-101184933D01*
X150681768Y-101507781D01*
X150681765Y-101507798D01*
X150649500Y-101835403D01*
X150649500Y-102164596D01*
X150681765Y-102492201D01*
X150681768Y-102492218D01*
X150745984Y-102815066D01*
X150745987Y-102815077D01*
X150841552Y-103130112D01*
X150967528Y-103434244D01*
X150967535Y-103434258D01*
X151122707Y-103724567D01*
X151122718Y-103724585D01*
X151305601Y-103998289D01*
X151305611Y-103998303D01*
X151514453Y-104252777D01*
X151549495Y-104287819D01*
X151582980Y-104349142D01*
X151577996Y-104418834D01*
X151536124Y-104474767D01*
X151470660Y-104499184D01*
X151461814Y-104499500D01*
X111538186Y-104499500D01*
X111471147Y-104479815D01*
X111425392Y-104427011D01*
X111415448Y-104357853D01*
X111444473Y-104294297D01*
X111450505Y-104287819D01*
X111485546Y-104252777D01*
X111485551Y-104252772D01*
X111694393Y-103998298D01*
X111877286Y-103724579D01*
X112032469Y-103434251D01*
X112158448Y-103130111D01*
X112254010Y-102815087D01*
X112254012Y-102815077D01*
X112254015Y-102815066D01*
X112282916Y-102669760D01*
X112318233Y-102492213D01*
X112350500Y-102164600D01*
X112350500Y-101835400D01*
X112318233Y-101507787D01*
X112289903Y-101365361D01*
X112254015Y-101184933D01*
X112254012Y-101184922D01*
X112254011Y-101184919D01*
X112254010Y-101184913D01*
X112158448Y-100869889D01*
X112032469Y-100565749D01*
X111877286Y-100275421D01*
X111694393Y-100001702D01*
X111485551Y-99747228D01*
X111485550Y-99747227D01*
X111485546Y-99747222D01*
X111252777Y-99514453D01*
X110998303Y-99305611D01*
X110998302Y-99305610D01*
X110998298Y-99305607D01*
X110724579Y-99122714D01*
X110724574Y-99122711D01*
X110724567Y-99122707D01*
X110452819Y-98977456D01*
X110434258Y-98967535D01*
X110434251Y-98967531D01*
X110434244Y-98967528D01*
X110203979Y-98872149D01*
X117049500Y-98872149D01*
X117049500Y-99127850D01*
X117072903Y-99305601D01*
X117082874Y-99381340D01*
X117149050Y-99628312D01*
X117149053Y-99628322D01*
X117246894Y-99864531D01*
X117246899Y-99864542D01*
X117374734Y-100085957D01*
X117374745Y-100085973D01*
X117530388Y-100288811D01*
X117530394Y-100288818D01*
X117711181Y-100469605D01*
X117711187Y-100469610D01*
X117914035Y-100625261D01*
X117914042Y-100625265D01*
X118135457Y-100753100D01*
X118135462Y-100753102D01*
X118135465Y-100753104D01*
X118371687Y-100850950D01*
X118618660Y-100917126D01*
X118872157Y-100950500D01*
X118872164Y-100950500D01*
X119127836Y-100950500D01*
X119127843Y-100950500D01*
X119381340Y-100917126D01*
X119628313Y-100850950D01*
X119864535Y-100753104D01*
X120085965Y-100625261D01*
X120288813Y-100469610D01*
X120469610Y-100288813D01*
X120625261Y-100085965D01*
X120753104Y-99864535D01*
X120850950Y-99628313D01*
X120917126Y-99381340D01*
X120950500Y-99127843D01*
X120950500Y-98872157D01*
X120917126Y-98618660D01*
X120850950Y-98371687D01*
X120753104Y-98135465D01*
X120753102Y-98135462D01*
X120753100Y-98135457D01*
X120625265Y-97914042D01*
X120625261Y-97914035D01*
X120469610Y-97711187D01*
X120469605Y-97711181D01*
X120288818Y-97530394D01*
X120288811Y-97530388D01*
X120085973Y-97374745D01*
X120085971Y-97374743D01*
X120085965Y-97374739D01*
X120085960Y-97374736D01*
X120085957Y-97374734D01*
X119864542Y-97246899D01*
X119864531Y-97246894D01*
X119628322Y-97149053D01*
X119628315Y-97149051D01*
X119628313Y-97149050D01*
X119381340Y-97082874D01*
X119325007Y-97075457D01*
X119127850Y-97049500D01*
X119127843Y-97049500D01*
X118872157Y-97049500D01*
X118872149Y-97049500D01*
X118646826Y-97079165D01*
X118618660Y-97082874D01*
X118371687Y-97149050D01*
X118371677Y-97149053D01*
X118135468Y-97246894D01*
X118135457Y-97246899D01*
X117914042Y-97374734D01*
X117914026Y-97374745D01*
X117711188Y-97530388D01*
X117711181Y-97530394D01*
X117530394Y-97711181D01*
X117530388Y-97711188D01*
X117374745Y-97914026D01*
X117374734Y-97914042D01*
X117246899Y-98135457D01*
X117246894Y-98135468D01*
X117149053Y-98371677D01*
X117149050Y-98371687D01*
X117082874Y-98618661D01*
X117049500Y-98872149D01*
X110203979Y-98872149D01*
X110130112Y-98841552D01*
X109815077Y-98745987D01*
X109815066Y-98745984D01*
X109492218Y-98681768D01*
X109492213Y-98681767D01*
X109492211Y-98681766D01*
X109492201Y-98681765D01*
X109251522Y-98658061D01*
X109164600Y-98649500D01*
X108835400Y-98649500D01*
X108755540Y-98657365D01*
X108507798Y-98681765D01*
X108507781Y-98681768D01*
X108184933Y-98745984D01*
X108184922Y-98745987D01*
X107869887Y-98841552D01*
X107565755Y-98967528D01*
X107565741Y-98967535D01*
X107275432Y-99122707D01*
X107275414Y-99122718D01*
X107001710Y-99305601D01*
X107001696Y-99305611D01*
X106747222Y-99514453D01*
X106712181Y-99549495D01*
X106650858Y-99582980D01*
X106581166Y-99577996D01*
X106525233Y-99536124D01*
X106500816Y-99470660D01*
X106500500Y-99461814D01*
X106500500Y-89085258D01*
X109429500Y-89085258D01*
X109429500Y-89314741D01*
X109453612Y-89497883D01*
X109459452Y-89542238D01*
X109459453Y-89542240D01*
X109518842Y-89763887D01*
X109606650Y-89975876D01*
X109606656Y-89975888D01*
X109703597Y-90143796D01*
X109721392Y-90174617D01*
X109861081Y-90356661D01*
X109861089Y-90356670D01*
X110023330Y-90518911D01*
X110023338Y-90518918D01*
X110205382Y-90658607D01*
X110205385Y-90658608D01*
X110205388Y-90658611D01*
X110404112Y-90773344D01*
X110404117Y-90773346D01*
X110404123Y-90773349D01*
X110495480Y-90811190D01*
X110616113Y-90861158D01*
X110837762Y-90920548D01*
X111065266Y-90950500D01*
X111065273Y-90950500D01*
X111294727Y-90950500D01*
X111294734Y-90950500D01*
X111522238Y-90920548D01*
X111743887Y-90861158D01*
X111955888Y-90773344D01*
X112154612Y-90658611D01*
X112336661Y-90518919D01*
X112336665Y-90518914D01*
X112336670Y-90518911D01*
X112498911Y-90356670D01*
X112498914Y-90356665D01*
X112498919Y-90356661D01*
X112638611Y-90174612D01*
X112753344Y-89975888D01*
X112841158Y-89763887D01*
X112900548Y-89542238D01*
X112930500Y-89314734D01*
X112930500Y-89085266D01*
X112900548Y-88857762D01*
X112845451Y-88652136D01*
X114499500Y-88652136D01*
X114499500Y-89747863D01*
X114499501Y-89747882D01*
X114505908Y-89807481D01*
X114556202Y-89942327D01*
X114556203Y-89942328D01*
X114556204Y-89942330D01*
X114642454Y-90057546D01*
X114757670Y-90143796D01*
X114757671Y-90143796D01*
X114757672Y-90143797D01*
X114892518Y-90194091D01*
X114892517Y-90194091D01*
X114899445Y-90194835D01*
X114952128Y-90200500D01*
X114952137Y-90200500D01*
X116047863Y-90200500D01*
X116047872Y-90200500D01*
X116107482Y-90194091D01*
X116242330Y-90143796D01*
X116357546Y-90057546D01*
X116443796Y-89942330D01*
X116494091Y-89807482D01*
X116500500Y-89747872D01*
X116500500Y-88652128D01*
X116494091Y-88592518D01*
X116443796Y-88457670D01*
X116357546Y-88342454D01*
X116242330Y-88256204D01*
X116242327Y-88256202D01*
X116107481Y-88205908D01*
X116107482Y-88205908D01*
X116072384Y-88202135D01*
X148417000Y-88202135D01*
X148417000Y-89497870D01*
X148417001Y-89497876D01*
X148423408Y-89557483D01*
X148473702Y-89692328D01*
X148473706Y-89692335D01*
X148559952Y-89807544D01*
X148559955Y-89807547D01*
X148675164Y-89893793D01*
X148675171Y-89893797D01*
X148810017Y-89944091D01*
X148810016Y-89944091D01*
X148816944Y-89944835D01*
X148869627Y-89950500D01*
X150465372Y-89950499D01*
X150524983Y-89944091D01*
X150659831Y-89893796D01*
X150775046Y-89807546D01*
X150861296Y-89692331D01*
X150911591Y-89557483D01*
X150918000Y-89497873D01*
X150917999Y-88202128D01*
X150911591Y-88142517D01*
X150861296Y-88007669D01*
X150861295Y-88007668D01*
X150861293Y-88007664D01*
X150775047Y-87892455D01*
X150775044Y-87892452D01*
X150659835Y-87806206D01*
X150659828Y-87806202D01*
X150524982Y-87755908D01*
X150524983Y-87755908D01*
X150465383Y-87749501D01*
X150465381Y-87749500D01*
X150465373Y-87749500D01*
X150465364Y-87749500D01*
X148869629Y-87749500D01*
X148869623Y-87749501D01*
X148810016Y-87755908D01*
X148675171Y-87806202D01*
X148675164Y-87806206D01*
X148559955Y-87892452D01*
X148559952Y-87892455D01*
X148473706Y-88007664D01*
X148473702Y-88007671D01*
X148423408Y-88142517D01*
X148417282Y-88199500D01*
X148417001Y-88202123D01*
X148417000Y-88202135D01*
X116072384Y-88202135D01*
X116047882Y-88199501D01*
X116047880Y-88199500D01*
X116047872Y-88199500D01*
X114952128Y-88199500D01*
X114952120Y-88199500D01*
X114952117Y-88199501D01*
X114892518Y-88205908D01*
X114757672Y-88256202D01*
X114757670Y-88256204D01*
X114642454Y-88342454D01*
X114556204Y-88457670D01*
X114556202Y-88457672D01*
X114505908Y-88592518D01*
X114499501Y-88652117D01*
X114499500Y-88652136D01*
X112845451Y-88652136D01*
X112841158Y-88636113D01*
X112767245Y-88457672D01*
X112753349Y-88424123D01*
X112753346Y-88424117D01*
X112753344Y-88424112D01*
X112638611Y-88225388D01*
X112638608Y-88225385D01*
X112638607Y-88225382D01*
X112498918Y-88043338D01*
X112498911Y-88043330D01*
X112336670Y-87881089D01*
X112336661Y-87881081D01*
X112154617Y-87741392D01*
X111955890Y-87626657D01*
X111955876Y-87626650D01*
X111743887Y-87538842D01*
X111522238Y-87479452D01*
X111484215Y-87474446D01*
X111294741Y-87449500D01*
X111294734Y-87449500D01*
X111065266Y-87449500D01*
X111065258Y-87449500D01*
X110848715Y-87478009D01*
X110837762Y-87479452D01*
X110744076Y-87504554D01*
X110616112Y-87538842D01*
X110404123Y-87626650D01*
X110404109Y-87626657D01*
X110205382Y-87741392D01*
X110023338Y-87881081D01*
X109861081Y-88043338D01*
X109721392Y-88225382D01*
X109606657Y-88424109D01*
X109606650Y-88424123D01*
X109518842Y-88636112D01*
X109459453Y-88857759D01*
X109459451Y-88857770D01*
X109429500Y-89085258D01*
X106500500Y-89085258D01*
X106500500Y-81538186D01*
X106520185Y-81471147D01*
X106572989Y-81425392D01*
X106642147Y-81415448D01*
X106705703Y-81444473D01*
X106712181Y-81450505D01*
X106747222Y-81485546D01*
X106747227Y-81485550D01*
X106747228Y-81485551D01*
X107001702Y-81694393D01*
X107275421Y-81877286D01*
X107565749Y-82032469D01*
X107869889Y-82158448D01*
X108184913Y-82254010D01*
X108184919Y-82254011D01*
X108184922Y-82254012D01*
X108184933Y-82254015D01*
X108365361Y-82289903D01*
X108507787Y-82318233D01*
X108835400Y-82350500D01*
X108835403Y-82350500D01*
X109164597Y-82350500D01*
X109164600Y-82350500D01*
X109492213Y-82318233D01*
X109669760Y-82282916D01*
X109815066Y-82254015D01*
X109815077Y-82254012D01*
X109815077Y-82254011D01*
X109815087Y-82254010D01*
X110130111Y-82158448D01*
X110434251Y-82032469D01*
X110715943Y-81881902D01*
X144499500Y-81881902D01*
X144499500Y-82118097D01*
X144536446Y-82351368D01*
X144609433Y-82575996D01*
X144716657Y-82786433D01*
X144855483Y-82977510D01*
X145022490Y-83144517D01*
X145213567Y-83283343D01*
X145312991Y-83334002D01*
X145424003Y-83390566D01*
X145424005Y-83390566D01*
X145424008Y-83390568D01*
X145544412Y-83429689D01*
X145648631Y-83463553D01*
X145881903Y-83500500D01*
X145881908Y-83500500D01*
X146118097Y-83500500D01*
X146351368Y-83463553D01*
X146575992Y-83390568D01*
X146786433Y-83283343D01*
X146977510Y-83144517D01*
X147144517Y-82977510D01*
X147283343Y-82786433D01*
X147390568Y-82575992D01*
X147463553Y-82351368D01*
X147478973Y-82254010D01*
X147500500Y-82118097D01*
X147500500Y-81881902D01*
X147463553Y-81648631D01*
X147424793Y-81529340D01*
X147390568Y-81424008D01*
X147390566Y-81424005D01*
X147390566Y-81424003D01*
X147303319Y-81252772D01*
X147283343Y-81213567D01*
X147144517Y-81022490D01*
X146977510Y-80855483D01*
X146786433Y-80716657D01*
X146575996Y-80609433D01*
X146351368Y-80536446D01*
X146118097Y-80499500D01*
X146118092Y-80499500D01*
X145881908Y-80499500D01*
X145881903Y-80499500D01*
X145648631Y-80536446D01*
X145424003Y-80609433D01*
X145213566Y-80716657D01*
X145104550Y-80795862D01*
X145022490Y-80855483D01*
X145022488Y-80855485D01*
X145022487Y-80855485D01*
X144855485Y-81022487D01*
X144855485Y-81022488D01*
X144855483Y-81022490D01*
X144795862Y-81104550D01*
X144716657Y-81213566D01*
X144609433Y-81424003D01*
X144536446Y-81648631D01*
X144499500Y-81881902D01*
X110715943Y-81881902D01*
X110724579Y-81877286D01*
X110998298Y-81694393D01*
X111252772Y-81485551D01*
X111485551Y-81252772D01*
X111694393Y-80998298D01*
X111877286Y-80724579D01*
X112032469Y-80434251D01*
X112158448Y-80130111D01*
X112254010Y-79815087D01*
X112254012Y-79815077D01*
X112254015Y-79815066D01*
X112282916Y-79669760D01*
X112318233Y-79492213D01*
X112350500Y-79164600D01*
X112350500Y-78835400D01*
X112318233Y-78507787D01*
X112289903Y-78365361D01*
X112254015Y-78184933D01*
X112254012Y-78184922D01*
X112254011Y-78184919D01*
X112254010Y-78184913D01*
X112158448Y-77869889D01*
X112032469Y-77565749D01*
X111877286Y-77275421D01*
X111694393Y-77001702D01*
X111485551Y-76747228D01*
X111485550Y-76747227D01*
X111485546Y-76747222D01*
X111450505Y-76712181D01*
X111417020Y-76650858D01*
X111422004Y-76581166D01*
X111463876Y-76525233D01*
X111529340Y-76500816D01*
X111538186Y-76500500D01*
X151461814Y-76500500D01*
X151528853Y-76520185D01*
G37*
%TD.AperFunction*%
%TD*%
M02*
