%TF.GenerationSoftware,KiCad,Pcbnew,9.0.0*%
%TF.CreationDate,2025-04-05T15:37:09+05:30*%
%TF.ProjectId,Soldr_project,536f6c64-725f-4707-926f-6a6563742e6b,rev?*%
%TF.SameCoordinates,Original*%
%TF.FileFunction,Soldermask,Top*%
%TF.FilePolarity,Negative*%
%FSLAX46Y46*%
G04 Gerber Fmt 4.6, Leading zero omitted, Abs format (unit mm)*
G04 Created by KiCad (PCBNEW 9.0.0) date 2025-04-05 15:37:09*
%MOMM*%
%LPD*%
G01*
G04 APERTURE LIST*
G04 Aperture macros list*
%AMRoundRect*
0 Rectangle with rounded corners*
0 $1 Rounding radius*
0 $2 $3 $4 $5 $6 $7 $8 $9 X,Y pos of 4 corners*
0 Add a 4 corners polygon primitive as box body*
4,1,4,$2,$3,$4,$5,$6,$7,$8,$9,$2,$3,0*
0 Add four circle primitives for the rounded corners*
1,1,$1+$1,$2,$3*
1,1,$1+$1,$4,$5*
1,1,$1+$1,$6,$7*
1,1,$1+$1,$8,$9*
0 Add four rect primitives between the rounded corners*
20,1,$1+$1,$2,$3,$4,$5,0*
20,1,$1+$1,$4,$5,$6,$7,0*
20,1,$1+$1,$6,$7,$8,$9,0*
20,1,$1+$1,$8,$9,$2,$3,0*%
G04 Aperture macros list end*
%ADD10C,0.000000*%
%ADD11RoundRect,0.150000X-0.825000X-0.150000X0.825000X-0.150000X0.825000X0.150000X-0.825000X0.150000X0*%
%ADD12R,2.290000X3.000000*%
%ADD13C,2.700000*%
%ADD14C,2.500000*%
%ADD15RoundRect,0.250000X-0.750000X0.600000X-0.750000X-0.600000X0.750000X-0.600000X0.750000X0.600000X0*%
%ADD16O,2.000000X1.700000*%
%ADD17RoundRect,0.160000X-0.160000X0.197500X-0.160000X-0.197500X0.160000X-0.197500X0.160000X0.197500X0*%
%ADD18RoundRect,0.160000X0.197500X0.160000X-0.197500X0.160000X-0.197500X-0.160000X0.197500X-0.160000X0*%
%ADD19RoundRect,0.160000X-0.197500X-0.160000X0.197500X-0.160000X0.197500X0.160000X-0.197500X0.160000X0*%
%ADD20RoundRect,0.250002X-1.499998X-1.749998X1.499998X-1.749998X1.499998X1.749998X-1.499998X1.749998X0*%
%ADD21C,3.000000*%
%ADD22RoundRect,0.250001X0.499999X-0.499999X0.499999X0.499999X-0.499999X0.499999X-0.499999X-0.499999X0*%
%ADD23C,1.500000*%
%ADD24RoundRect,0.250000X-0.650000X1.500000X-0.650000X-1.500000X0.650000X-1.500000X0.650000X1.500000X0*%
%ADD25RoundRect,0.250000X-0.650000X0.412500X-0.650000X-0.412500X0.650000X-0.412500X0.650000X0.412500X0*%
%ADD26RoundRect,0.155000X-0.212500X-0.155000X0.212500X-0.155000X0.212500X0.155000X-0.212500X0.155000X0*%
%ADD27RoundRect,0.155000X0.155000X-0.212500X0.155000X0.212500X-0.155000X0.212500X-0.155000X-0.212500X0*%
%ADD28RoundRect,0.237500X0.237500X-0.300000X0.237500X0.300000X-0.237500X0.300000X-0.237500X-0.300000X0*%
%ADD29RoundRect,0.250000X1.100000X-0.412500X1.100000X0.412500X-1.100000X0.412500X-1.100000X-0.412500X0*%
G04 APERTURE END LIST*
D10*
%TO.C,G\u002A\u002A\u002A*%
G36*
X130374481Y-79156756D02*
G01*
X130374481Y-80505782D01*
X130885355Y-80505782D01*
X131396229Y-80505782D01*
X131396229Y-80849025D01*
X131396229Y-81192269D01*
X130550094Y-81192269D01*
X129703960Y-81192269D01*
X129703960Y-79500000D01*
X129703960Y-77807731D01*
X130039221Y-77807731D01*
X130374481Y-77807731D01*
X130374481Y-79156756D01*
G37*
G36*
X140496166Y-77895537D02*
G01*
X140496166Y-77983343D01*
X140408359Y-77983343D01*
X140320553Y-77983343D01*
X140320553Y-78150974D01*
X140320553Y-78318604D01*
X140232747Y-78318604D01*
X140144940Y-78318604D01*
X140144940Y-78150974D01*
X140144940Y-77983343D01*
X140065116Y-77983343D01*
X139985292Y-77983343D01*
X139985292Y-77895537D01*
X139985292Y-77807731D01*
X140240729Y-77807731D01*
X140496166Y-77807731D01*
X140496166Y-77895537D01*
G37*
G36*
X133467801Y-78147119D02*
G01*
X133806914Y-78486507D01*
X133806914Y-79500275D01*
X133806914Y-80514043D01*
X133467526Y-80853156D01*
X133128138Y-81192269D01*
X132453761Y-81192269D01*
X131779384Y-81192269D01*
X131779384Y-80505782D01*
X132449906Y-80505782D01*
X132785167Y-80505782D01*
X133120427Y-80505782D01*
X133120427Y-79500000D01*
X133120427Y-78494217D01*
X132785167Y-78494217D01*
X132449906Y-78494217D01*
X132449906Y-79500000D01*
X132449906Y-80505782D01*
X131779384Y-80505782D01*
X131779384Y-79500000D01*
X131779384Y-77807731D01*
X132454036Y-77807731D01*
X133128688Y-77807731D01*
X133467801Y-78147119D01*
G37*
G36*
X128980267Y-78154283D02*
G01*
X129320804Y-78500835D01*
X129320804Y-79500740D01*
X129320804Y-80500645D01*
X128980995Y-80846457D01*
X128641185Y-81192269D01*
X126614074Y-81192269D01*
X124586962Y-81192269D01*
X124247849Y-80852880D01*
X123908737Y-80513492D01*
X123908737Y-80505782D01*
X124595223Y-80505782D01*
X126614771Y-80505782D01*
X128634318Y-80505782D01*
X128634318Y-79500000D01*
X128634318Y-78494217D01*
X126614771Y-78494217D01*
X124595223Y-78494217D01*
X124595223Y-79500000D01*
X124595223Y-80505782D01*
X123908737Y-80505782D01*
X123908737Y-79500000D01*
X123908737Y-79499724D01*
X123908737Y-78485956D01*
X124248125Y-78146843D01*
X124587513Y-77807731D01*
X126613621Y-77807731D01*
X128639730Y-77807731D01*
X128980267Y-78154283D01*
G37*
G36*
X140995066Y-77811404D02*
G01*
X141334318Y-77815713D01*
X141339144Y-77899528D01*
X141343969Y-77983343D01*
X141422959Y-77983343D01*
X141501948Y-77983343D01*
X141501948Y-78150974D01*
X141501948Y-78318604D01*
X141414142Y-78318604D01*
X141326336Y-78318604D01*
X141326336Y-78150974D01*
X141326336Y-77983343D01*
X141246512Y-77983343D01*
X141166688Y-77983343D01*
X141166688Y-78150974D01*
X141166688Y-78318604D01*
X141078881Y-78318604D01*
X140991075Y-78318604D01*
X140991075Y-78150974D01*
X140991075Y-77983343D01*
X140911251Y-77983343D01*
X140831427Y-77983343D01*
X140831427Y-78150974D01*
X140831427Y-78318604D01*
X140743620Y-78318604D01*
X140655814Y-78318604D01*
X140655814Y-78062850D01*
X140655814Y-77807096D01*
X140995066Y-77811404D01*
G37*
G36*
X123186647Y-78146983D02*
G01*
X123182338Y-78486235D01*
X122683438Y-78490453D01*
X122184538Y-78494672D01*
X122184538Y-78821723D01*
X122184538Y-79148774D01*
X122515093Y-79148774D01*
X122845647Y-79148774D01*
X123185614Y-79492933D01*
X123525581Y-79837093D01*
X123525581Y-80175568D01*
X123525581Y-80514043D01*
X123186193Y-80853156D01*
X122846805Y-81192269D01*
X122340059Y-81192269D01*
X121833312Y-81192269D01*
X121833312Y-80849025D01*
X121833312Y-80505782D01*
X122336204Y-80505782D01*
X122839095Y-80505782D01*
X122839095Y-80170521D01*
X122839095Y-79835260D01*
X122507686Y-79835260D01*
X122176277Y-79835260D01*
X121837164Y-79495872D01*
X121498052Y-79156484D01*
X121498052Y-78821220D01*
X121498052Y-78485956D01*
X121837440Y-78146843D01*
X122176828Y-77807731D01*
X122683892Y-77807731D01*
X123190956Y-77807731D01*
X123186647Y-78146983D01*
G37*
G36*
X139255039Y-78155098D02*
G01*
X139602137Y-78502466D01*
X139602137Y-78829350D01*
X139602137Y-79156235D01*
X139431390Y-79327513D01*
X139260642Y-79498792D01*
X139431390Y-79673886D01*
X139602137Y-79848980D01*
X139602137Y-80520624D01*
X139602137Y-81192269D01*
X139258894Y-81192269D01*
X138915650Y-81192269D01*
X138915650Y-80521747D01*
X138915650Y-79851225D01*
X136896103Y-79851225D01*
X134876556Y-79851225D01*
X134876556Y-80521747D01*
X134876556Y-81192269D01*
X134533312Y-81192269D01*
X134190069Y-81192269D01*
X134190069Y-79500000D01*
X134190069Y-79164739D01*
X134876556Y-79164739D01*
X136896103Y-79164739D01*
X138915650Y-79164739D01*
X138915650Y-78829478D01*
X138915650Y-78494217D01*
X136896103Y-78494217D01*
X134876556Y-78494217D01*
X134876556Y-78829478D01*
X134876556Y-79164739D01*
X134190069Y-79164739D01*
X134190069Y-78829478D01*
X134190069Y-77807731D01*
X136549005Y-77807731D01*
X138907940Y-77807731D01*
X139255039Y-78155098D01*
G37*
%TD*%
D11*
%TO.C,U1*%
X126572500Y-93495000D03*
X126572500Y-94765000D03*
X126572500Y-96035000D03*
X126572500Y-97305000D03*
X131522500Y-97305000D03*
X131522500Y-96035000D03*
X131522500Y-94765000D03*
X131522500Y-93495000D03*
D12*
X129047500Y-95400000D03*
%TD*%
D13*
%TO.C,H4*%
X154000000Y-102000000D03*
%TD*%
%TO.C,H3*%
X109000000Y-102000000D03*
%TD*%
%TO.C,H2*%
X154000000Y-79000000D03*
%TD*%
%TO.C,H1*%
X109000000Y-79000000D03*
%TD*%
D14*
%TO.C,TP4*%
X119000000Y-82000000D03*
%TD*%
%TO.C,TP3*%
X119000000Y-99000000D03*
%TD*%
%TO.C,TP2*%
X145800000Y-99000000D03*
%TD*%
%TO.C,TP1*%
X146000000Y-82000000D03*
%TD*%
D15*
%TO.C,J1*%
X149667500Y-88850000D03*
D16*
X149667500Y-91350000D03*
%TD*%
D17*
%TO.C,R8*%
X133300000Y-97402500D03*
X133300000Y-98597500D03*
%TD*%
D18*
%TO.C,R7*%
X135597500Y-97400000D03*
X134402500Y-97400000D03*
%TD*%
D19*
%TO.C,R6*%
X134502500Y-93400000D03*
X135697500Y-93400000D03*
%TD*%
%TO.C,R3*%
X126105000Y-98700000D03*
X127300000Y-98700000D03*
%TD*%
D17*
%TO.C,R2*%
X124700000Y-97302500D03*
X124700000Y-98497500D03*
%TD*%
D19*
%TO.C,R1*%
X123502500Y-96200000D03*
X124697500Y-96200000D03*
%TD*%
D20*
%TO.C,L1*%
X131150000Y-87300000D03*
X140650000Y-87300000D03*
%TD*%
D21*
%TO.C,J2*%
X111180000Y-89200000D03*
D22*
X115500000Y-89200000D03*
D23*
X118500000Y-89200000D03*
%TD*%
D24*
%TO.C,D1*%
X127300000Y-85600000D03*
X127300000Y-90600000D03*
%TD*%
D25*
%TO.C,C8*%
X146400000Y-88437500D03*
X146400000Y-91562500D03*
%TD*%
%TO.C,C7*%
X144000000Y-88437500D03*
X144000000Y-91562500D03*
%TD*%
D26*
%TO.C,C6*%
X136832500Y-93400000D03*
X137967500Y-93400000D03*
%TD*%
D27*
%TO.C,C5*%
X136300000Y-95600000D03*
X136300000Y-94465000D03*
%TD*%
%TO.C,C4*%
X133300000Y-94667500D03*
X133300000Y-93532500D03*
%TD*%
D28*
%TO.C,C3*%
X124500000Y-94762500D03*
X124500000Y-93037500D03*
%TD*%
D29*
%TO.C,C2*%
X122100000Y-94662500D03*
X122100000Y-91537500D03*
%TD*%
%TO.C,C1*%
X118800000Y-94662500D03*
X118800000Y-91537500D03*
%TD*%
M02*
