%TF.GenerationSoftware,KiCad,Pcbnew,9.0.0*%
%TF.CreationDate,2025-04-05T15:37:09+05:30*%
%TF.ProjectId,Soldr_project,536f6c64-725f-4707-926f-6a6563742e6b,rev?*%
%TF.SameCoordinates,Original*%
%TF.FileFunction,Legend,Top*%
%TF.FilePolarity,Positive*%
%FSLAX46Y46*%
G04 Gerber Fmt 4.6, Leading zero omitted, Abs format (unit mm)*
G04 Created by KiCad (PCBNEW 9.0.0) date 2025-04-05 15:37:09*
%MOMM*%
%LPD*%
G01*
G04 APERTURE LIST*
%ADD10C,0.125000*%
%ADD11C,0.150000*%
%ADD12C,0.120000*%
G04 APERTURE END LIST*
D10*
X120999998Y-104371119D02*
X120523808Y-104371119D01*
X120523808Y-104371119D02*
X120523808Y-103371119D01*
X121333332Y-104371119D02*
X121333332Y-103371119D01*
X121333332Y-103371119D02*
X121666665Y-104085404D01*
X121666665Y-104085404D02*
X121999998Y-103371119D01*
X121999998Y-103371119D02*
X121999998Y-104371119D01*
X122952379Y-103371119D02*
X122476189Y-103371119D01*
X122476189Y-103371119D02*
X122428570Y-103847309D01*
X122428570Y-103847309D02*
X122476189Y-103799690D01*
X122476189Y-103799690D02*
X122571427Y-103752071D01*
X122571427Y-103752071D02*
X122809522Y-103752071D01*
X122809522Y-103752071D02*
X122904760Y-103799690D01*
X122904760Y-103799690D02*
X122952379Y-103847309D01*
X122952379Y-103847309D02*
X122999998Y-103942547D01*
X122999998Y-103942547D02*
X122999998Y-104180642D01*
X122999998Y-104180642D02*
X122952379Y-104275880D01*
X122952379Y-104275880D02*
X122904760Y-104323500D01*
X122904760Y-104323500D02*
X122809522Y-104371119D01*
X122809522Y-104371119D02*
X122571427Y-104371119D01*
X122571427Y-104371119D02*
X122476189Y-104323500D01*
X122476189Y-104323500D02*
X122428570Y-104275880D01*
X123619046Y-103371119D02*
X123714284Y-103371119D01*
X123714284Y-103371119D02*
X123809522Y-103418738D01*
X123809522Y-103418738D02*
X123857141Y-103466357D01*
X123857141Y-103466357D02*
X123904760Y-103561595D01*
X123904760Y-103561595D02*
X123952379Y-103752071D01*
X123952379Y-103752071D02*
X123952379Y-103990166D01*
X123952379Y-103990166D02*
X123904760Y-104180642D01*
X123904760Y-104180642D02*
X123857141Y-104275880D01*
X123857141Y-104275880D02*
X123809522Y-104323500D01*
X123809522Y-104323500D02*
X123714284Y-104371119D01*
X123714284Y-104371119D02*
X123619046Y-104371119D01*
X123619046Y-104371119D02*
X123523808Y-104323500D01*
X123523808Y-104323500D02*
X123476189Y-104275880D01*
X123476189Y-104275880D02*
X123428570Y-104180642D01*
X123428570Y-104180642D02*
X123380951Y-103990166D01*
X123380951Y-103990166D02*
X123380951Y-103752071D01*
X123380951Y-103752071D02*
X123428570Y-103561595D01*
X123428570Y-103561595D02*
X123476189Y-103466357D01*
X123476189Y-103466357D02*
X123523808Y-103418738D01*
X123523808Y-103418738D02*
X123619046Y-103371119D01*
X124904760Y-104371119D02*
X124333332Y-104371119D01*
X124619046Y-104371119D02*
X124619046Y-103371119D01*
X124619046Y-103371119D02*
X124523808Y-103513976D01*
X124523808Y-103513976D02*
X124428570Y-103609214D01*
X124428570Y-103609214D02*
X124333332Y-103656833D01*
X125285713Y-103466357D02*
X125333332Y-103418738D01*
X125333332Y-103418738D02*
X125428570Y-103371119D01*
X125428570Y-103371119D02*
X125666665Y-103371119D01*
X125666665Y-103371119D02*
X125761903Y-103418738D01*
X125761903Y-103418738D02*
X125809522Y-103466357D01*
X125809522Y-103466357D02*
X125857141Y-103561595D01*
X125857141Y-103561595D02*
X125857141Y-103656833D01*
X125857141Y-103656833D02*
X125809522Y-103799690D01*
X125809522Y-103799690D02*
X125238094Y-104371119D01*
X125238094Y-104371119D02*
X125857141Y-104371119D01*
X126999998Y-103323500D02*
X126142856Y-104609214D01*
X127809522Y-103371119D02*
X127333332Y-103371119D01*
X127333332Y-103371119D02*
X127285713Y-103847309D01*
X127285713Y-103847309D02*
X127333332Y-103799690D01*
X127333332Y-103799690D02*
X127428570Y-103752071D01*
X127428570Y-103752071D02*
X127666665Y-103752071D01*
X127666665Y-103752071D02*
X127761903Y-103799690D01*
X127761903Y-103799690D02*
X127809522Y-103847309D01*
X127809522Y-103847309D02*
X127857141Y-103942547D01*
X127857141Y-103942547D02*
X127857141Y-104180642D01*
X127857141Y-104180642D02*
X127809522Y-104275880D01*
X127809522Y-104275880D02*
X127761903Y-104323500D01*
X127761903Y-104323500D02*
X127666665Y-104371119D01*
X127666665Y-104371119D02*
X127428570Y-104371119D01*
X127428570Y-104371119D02*
X127333332Y-104323500D01*
X127333332Y-104323500D02*
X127285713Y-104275880D01*
X128476189Y-103371119D02*
X128571427Y-103371119D01*
X128571427Y-103371119D02*
X128666665Y-103418738D01*
X128666665Y-103418738D02*
X128714284Y-103466357D01*
X128714284Y-103466357D02*
X128761903Y-103561595D01*
X128761903Y-103561595D02*
X128809522Y-103752071D01*
X128809522Y-103752071D02*
X128809522Y-103990166D01*
X128809522Y-103990166D02*
X128761903Y-104180642D01*
X128761903Y-104180642D02*
X128714284Y-104275880D01*
X128714284Y-104275880D02*
X128666665Y-104323500D01*
X128666665Y-104323500D02*
X128571427Y-104371119D01*
X128571427Y-104371119D02*
X128476189Y-104371119D01*
X128476189Y-104371119D02*
X128380951Y-104323500D01*
X128380951Y-104323500D02*
X128333332Y-104275880D01*
X128333332Y-104275880D02*
X128285713Y-104180642D01*
X128285713Y-104180642D02*
X128238094Y-103990166D01*
X128238094Y-103990166D02*
X128238094Y-103752071D01*
X128238094Y-103752071D02*
X128285713Y-103561595D01*
X128285713Y-103561595D02*
X128333332Y-103466357D01*
X128333332Y-103466357D02*
X128380951Y-103418738D01*
X128380951Y-103418738D02*
X128476189Y-103371119D01*
X129761903Y-104371119D02*
X129190475Y-104371119D01*
X129476189Y-104371119D02*
X129476189Y-103371119D01*
X129476189Y-103371119D02*
X129380951Y-103513976D01*
X129380951Y-103513976D02*
X129285713Y-103609214D01*
X129285713Y-103609214D02*
X129190475Y-103656833D01*
X130095237Y-103371119D02*
X130714284Y-103371119D01*
X130714284Y-103371119D02*
X130380951Y-103752071D01*
X130380951Y-103752071D02*
X130523808Y-103752071D01*
X130523808Y-103752071D02*
X130619046Y-103799690D01*
X130619046Y-103799690D02*
X130666665Y-103847309D01*
X130666665Y-103847309D02*
X130714284Y-103942547D01*
X130714284Y-103942547D02*
X130714284Y-104180642D01*
X130714284Y-104180642D02*
X130666665Y-104275880D01*
X130666665Y-104275880D02*
X130619046Y-104323500D01*
X130619046Y-104323500D02*
X130523808Y-104371119D01*
X130523808Y-104371119D02*
X130238094Y-104371119D01*
X130238094Y-104371119D02*
X130142856Y-104323500D01*
X130142856Y-104323500D02*
X130095237Y-104275880D01*
X131904761Y-104371119D02*
X131904761Y-103371119D01*
X131904761Y-103752071D02*
X131999999Y-103704452D01*
X131999999Y-103704452D02*
X132190475Y-103704452D01*
X132190475Y-103704452D02*
X132285713Y-103752071D01*
X132285713Y-103752071D02*
X132333332Y-103799690D01*
X132333332Y-103799690D02*
X132380951Y-103894928D01*
X132380951Y-103894928D02*
X132380951Y-104180642D01*
X132380951Y-104180642D02*
X132333332Y-104275880D01*
X132333332Y-104275880D02*
X132285713Y-104323500D01*
X132285713Y-104323500D02*
X132190475Y-104371119D01*
X132190475Y-104371119D02*
X131999999Y-104371119D01*
X131999999Y-104371119D02*
X131904761Y-104323500D01*
X133238094Y-103704452D02*
X133238094Y-104371119D01*
X132809523Y-103704452D02*
X132809523Y-104228261D01*
X132809523Y-104228261D02*
X132857142Y-104323500D01*
X132857142Y-104323500D02*
X132952380Y-104371119D01*
X132952380Y-104371119D02*
X133095237Y-104371119D01*
X133095237Y-104371119D02*
X133190475Y-104323500D01*
X133190475Y-104323500D02*
X133238094Y-104275880D01*
X134142856Y-104323500D02*
X134047618Y-104371119D01*
X134047618Y-104371119D02*
X133857142Y-104371119D01*
X133857142Y-104371119D02*
X133761904Y-104323500D01*
X133761904Y-104323500D02*
X133714285Y-104275880D01*
X133714285Y-104275880D02*
X133666666Y-104180642D01*
X133666666Y-104180642D02*
X133666666Y-103894928D01*
X133666666Y-103894928D02*
X133714285Y-103799690D01*
X133714285Y-103799690D02*
X133761904Y-103752071D01*
X133761904Y-103752071D02*
X133857142Y-103704452D01*
X133857142Y-103704452D02*
X134047618Y-103704452D01*
X134047618Y-103704452D02*
X134142856Y-103752071D01*
X134571428Y-104371119D02*
X134571428Y-103371119D01*
X134666666Y-103990166D02*
X134952380Y-104371119D01*
X134952380Y-103704452D02*
X134571428Y-104085404D01*
X136142857Y-104371119D02*
X136142857Y-103704452D01*
X136142857Y-103894928D02*
X136190476Y-103799690D01*
X136190476Y-103799690D02*
X136238095Y-103752071D01*
X136238095Y-103752071D02*
X136333333Y-103704452D01*
X136333333Y-103704452D02*
X136428571Y-103704452D01*
X137142857Y-104323500D02*
X137047619Y-104371119D01*
X137047619Y-104371119D02*
X136857143Y-104371119D01*
X136857143Y-104371119D02*
X136761905Y-104323500D01*
X136761905Y-104323500D02*
X136714286Y-104228261D01*
X136714286Y-104228261D02*
X136714286Y-103847309D01*
X136714286Y-103847309D02*
X136761905Y-103752071D01*
X136761905Y-103752071D02*
X136857143Y-103704452D01*
X136857143Y-103704452D02*
X137047619Y-103704452D01*
X137047619Y-103704452D02*
X137142857Y-103752071D01*
X137142857Y-103752071D02*
X137190476Y-103847309D01*
X137190476Y-103847309D02*
X137190476Y-103942547D01*
X137190476Y-103942547D02*
X136714286Y-104037785D01*
X138047619Y-103704452D02*
X138047619Y-104513976D01*
X138047619Y-104513976D02*
X138000000Y-104609214D01*
X138000000Y-104609214D02*
X137952381Y-104656833D01*
X137952381Y-104656833D02*
X137857143Y-104704452D01*
X137857143Y-104704452D02*
X137714286Y-104704452D01*
X137714286Y-104704452D02*
X137619048Y-104656833D01*
X138047619Y-104323500D02*
X137952381Y-104371119D01*
X137952381Y-104371119D02*
X137761905Y-104371119D01*
X137761905Y-104371119D02*
X137666667Y-104323500D01*
X137666667Y-104323500D02*
X137619048Y-104275880D01*
X137619048Y-104275880D02*
X137571429Y-104180642D01*
X137571429Y-104180642D02*
X137571429Y-103894928D01*
X137571429Y-103894928D02*
X137619048Y-103799690D01*
X137619048Y-103799690D02*
X137666667Y-103752071D01*
X137666667Y-103752071D02*
X137761905Y-103704452D01*
X137761905Y-103704452D02*
X137952381Y-103704452D01*
X137952381Y-103704452D02*
X138047619Y-103752071D01*
X138952381Y-103704452D02*
X138952381Y-104371119D01*
X138523810Y-103704452D02*
X138523810Y-104228261D01*
X138523810Y-104228261D02*
X138571429Y-104323500D01*
X138571429Y-104323500D02*
X138666667Y-104371119D01*
X138666667Y-104371119D02*
X138809524Y-104371119D01*
X138809524Y-104371119D02*
X138904762Y-104323500D01*
X138904762Y-104323500D02*
X138952381Y-104275880D01*
X139571429Y-104371119D02*
X139476191Y-104323500D01*
X139476191Y-104323500D02*
X139428572Y-104228261D01*
X139428572Y-104228261D02*
X139428572Y-103371119D01*
X140380953Y-104371119D02*
X140380953Y-103847309D01*
X140380953Y-103847309D02*
X140333334Y-103752071D01*
X140333334Y-103752071D02*
X140238096Y-103704452D01*
X140238096Y-103704452D02*
X140047620Y-103704452D01*
X140047620Y-103704452D02*
X139952382Y-103752071D01*
X140380953Y-104323500D02*
X140285715Y-104371119D01*
X140285715Y-104371119D02*
X140047620Y-104371119D01*
X140047620Y-104371119D02*
X139952382Y-104323500D01*
X139952382Y-104323500D02*
X139904763Y-104228261D01*
X139904763Y-104228261D02*
X139904763Y-104133023D01*
X139904763Y-104133023D02*
X139952382Y-104037785D01*
X139952382Y-104037785D02*
X140047620Y-103990166D01*
X140047620Y-103990166D02*
X140285715Y-103990166D01*
X140285715Y-103990166D02*
X140380953Y-103942547D01*
X140714287Y-103704452D02*
X141095239Y-103704452D01*
X140857144Y-103371119D02*
X140857144Y-104228261D01*
X140857144Y-104228261D02*
X140904763Y-104323500D01*
X140904763Y-104323500D02*
X141000001Y-104371119D01*
X141000001Y-104371119D02*
X141095239Y-104371119D01*
X141571430Y-104371119D02*
X141476192Y-104323500D01*
X141476192Y-104323500D02*
X141428573Y-104275880D01*
X141428573Y-104275880D02*
X141380954Y-104180642D01*
X141380954Y-104180642D02*
X141380954Y-103894928D01*
X141380954Y-103894928D02*
X141428573Y-103799690D01*
X141428573Y-103799690D02*
X141476192Y-103752071D01*
X141476192Y-103752071D02*
X141571430Y-103704452D01*
X141571430Y-103704452D02*
X141714287Y-103704452D01*
X141714287Y-103704452D02*
X141809525Y-103752071D01*
X141809525Y-103752071D02*
X141857144Y-103799690D01*
X141857144Y-103799690D02*
X141904763Y-103894928D01*
X141904763Y-103894928D02*
X141904763Y-104180642D01*
X141904763Y-104180642D02*
X141857144Y-104275880D01*
X141857144Y-104275880D02*
X141809525Y-104323500D01*
X141809525Y-104323500D02*
X141714287Y-104371119D01*
X141714287Y-104371119D02*
X141571430Y-104371119D01*
X142333335Y-104371119D02*
X142333335Y-103704452D01*
X142333335Y-103894928D02*
X142380954Y-103799690D01*
X142380954Y-103799690D02*
X142428573Y-103752071D01*
X142428573Y-103752071D02*
X142523811Y-103704452D01*
X142523811Y-103704452D02*
X142619049Y-103704452D01*
X148690475Y-84371119D02*
X148880951Y-84371119D01*
X148880951Y-84371119D02*
X148976189Y-84418738D01*
X148976189Y-84418738D02*
X149071427Y-84513976D01*
X149071427Y-84513976D02*
X149119046Y-84704452D01*
X149119046Y-84704452D02*
X149119046Y-85037785D01*
X149119046Y-85037785D02*
X149071427Y-85228261D01*
X149071427Y-85228261D02*
X148976189Y-85323500D01*
X148976189Y-85323500D02*
X148880951Y-85371119D01*
X148880951Y-85371119D02*
X148690475Y-85371119D01*
X148690475Y-85371119D02*
X148595237Y-85323500D01*
X148595237Y-85323500D02*
X148499999Y-85228261D01*
X148499999Y-85228261D02*
X148452380Y-85037785D01*
X148452380Y-85037785D02*
X148452380Y-84704452D01*
X148452380Y-84704452D02*
X148499999Y-84513976D01*
X148499999Y-84513976D02*
X148595237Y-84418738D01*
X148595237Y-84418738D02*
X148690475Y-84371119D01*
X149976189Y-84704452D02*
X149976189Y-85371119D01*
X149547618Y-84704452D02*
X149547618Y-85228261D01*
X149547618Y-85228261D02*
X149595237Y-85323500D01*
X149595237Y-85323500D02*
X149690475Y-85371119D01*
X149690475Y-85371119D02*
X149833332Y-85371119D01*
X149833332Y-85371119D02*
X149928570Y-85323500D01*
X149928570Y-85323500D02*
X149976189Y-85275880D01*
X150309523Y-84704452D02*
X150690475Y-84704452D01*
X150452380Y-84371119D02*
X150452380Y-85228261D01*
X150452380Y-85228261D02*
X150499999Y-85323500D01*
X150499999Y-85323500D02*
X150595237Y-85371119D01*
X150595237Y-85371119D02*
X150690475Y-85371119D01*
X151023809Y-84704452D02*
X151023809Y-85704452D01*
X151023809Y-84752071D02*
X151119047Y-84704452D01*
X151119047Y-84704452D02*
X151309523Y-84704452D01*
X151309523Y-84704452D02*
X151404761Y-84752071D01*
X151404761Y-84752071D02*
X151452380Y-84799690D01*
X151452380Y-84799690D02*
X151499999Y-84894928D01*
X151499999Y-84894928D02*
X151499999Y-85180642D01*
X151499999Y-85180642D02*
X151452380Y-85275880D01*
X151452380Y-85275880D02*
X151404761Y-85323500D01*
X151404761Y-85323500D02*
X151309523Y-85371119D01*
X151309523Y-85371119D02*
X151119047Y-85371119D01*
X151119047Y-85371119D02*
X151023809Y-85323500D01*
X152357142Y-84704452D02*
X152357142Y-85371119D01*
X151928571Y-84704452D02*
X151928571Y-85228261D01*
X151928571Y-85228261D02*
X151976190Y-85323500D01*
X151976190Y-85323500D02*
X152071428Y-85371119D01*
X152071428Y-85371119D02*
X152214285Y-85371119D01*
X152214285Y-85371119D02*
X152309523Y-85323500D01*
X152309523Y-85323500D02*
X152357142Y-85275880D01*
X152690476Y-84704452D02*
X153071428Y-84704452D01*
X152833333Y-84371119D02*
X152833333Y-85228261D01*
X152833333Y-85228261D02*
X152880952Y-85323500D01*
X152880952Y-85323500D02*
X152976190Y-85371119D01*
X152976190Y-85371119D02*
X153071428Y-85371119D01*
X154642857Y-84371119D02*
X154166667Y-84371119D01*
X154166667Y-84371119D02*
X154119048Y-84847309D01*
X154119048Y-84847309D02*
X154166667Y-84799690D01*
X154166667Y-84799690D02*
X154261905Y-84752071D01*
X154261905Y-84752071D02*
X154500000Y-84752071D01*
X154500000Y-84752071D02*
X154595238Y-84799690D01*
X154595238Y-84799690D02*
X154642857Y-84847309D01*
X154642857Y-84847309D02*
X154690476Y-84942547D01*
X154690476Y-84942547D02*
X154690476Y-85180642D01*
X154690476Y-85180642D02*
X154642857Y-85275880D01*
X154642857Y-85275880D02*
X154595238Y-85323500D01*
X154595238Y-85323500D02*
X154500000Y-85371119D01*
X154500000Y-85371119D02*
X154261905Y-85371119D01*
X154261905Y-85371119D02*
X154166667Y-85323500D01*
X154166667Y-85323500D02*
X154119048Y-85275880D01*
X154976191Y-84371119D02*
X155309524Y-85371119D01*
X155309524Y-85371119D02*
X155642857Y-84371119D01*
X108357143Y-94511175D02*
X108357143Y-93511175D01*
X108833333Y-93844508D02*
X108833333Y-94511175D01*
X108833333Y-93939746D02*
X108880952Y-93892127D01*
X108880952Y-93892127D02*
X108976190Y-93844508D01*
X108976190Y-93844508D02*
X109119047Y-93844508D01*
X109119047Y-93844508D02*
X109214285Y-93892127D01*
X109214285Y-93892127D02*
X109261904Y-93987365D01*
X109261904Y-93987365D02*
X109261904Y-94511175D01*
X109738095Y-93844508D02*
X109738095Y-94844508D01*
X109738095Y-93892127D02*
X109833333Y-93844508D01*
X109833333Y-93844508D02*
X110023809Y-93844508D01*
X110023809Y-93844508D02*
X110119047Y-93892127D01*
X110119047Y-93892127D02*
X110166666Y-93939746D01*
X110166666Y-93939746D02*
X110214285Y-94034984D01*
X110214285Y-94034984D02*
X110214285Y-94320698D01*
X110214285Y-94320698D02*
X110166666Y-94415936D01*
X110166666Y-94415936D02*
X110119047Y-94463556D01*
X110119047Y-94463556D02*
X110023809Y-94511175D01*
X110023809Y-94511175D02*
X109833333Y-94511175D01*
X109833333Y-94511175D02*
X109738095Y-94463556D01*
X111071428Y-93844508D02*
X111071428Y-94511175D01*
X110642857Y-93844508D02*
X110642857Y-94368317D01*
X110642857Y-94368317D02*
X110690476Y-94463556D01*
X110690476Y-94463556D02*
X110785714Y-94511175D01*
X110785714Y-94511175D02*
X110928571Y-94511175D01*
X110928571Y-94511175D02*
X111023809Y-94463556D01*
X111023809Y-94463556D02*
X111071428Y-94415936D01*
X111404762Y-93844508D02*
X111785714Y-93844508D01*
X111547619Y-93511175D02*
X111547619Y-94368317D01*
X111547619Y-94368317D02*
X111595238Y-94463556D01*
X111595238Y-94463556D02*
X111690476Y-94511175D01*
X111690476Y-94511175D02*
X111785714Y-94511175D01*
X107333333Y-96121119D02*
X106761905Y-96121119D01*
X107047619Y-96121119D02*
X107047619Y-95121119D01*
X107047619Y-95121119D02*
X106952381Y-95263976D01*
X106952381Y-95263976D02*
X106857143Y-95359214D01*
X106857143Y-95359214D02*
X106761905Y-95406833D01*
X107714286Y-95216357D02*
X107761905Y-95168738D01*
X107761905Y-95168738D02*
X107857143Y-95121119D01*
X107857143Y-95121119D02*
X108095238Y-95121119D01*
X108095238Y-95121119D02*
X108190476Y-95168738D01*
X108190476Y-95168738D02*
X108238095Y-95216357D01*
X108238095Y-95216357D02*
X108285714Y-95311595D01*
X108285714Y-95311595D02*
X108285714Y-95406833D01*
X108285714Y-95406833D02*
X108238095Y-95549690D01*
X108238095Y-95549690D02*
X107666667Y-96121119D01*
X107666667Y-96121119D02*
X108285714Y-96121119D01*
X108714286Y-95740166D02*
X109476191Y-95740166D01*
X110476190Y-96121119D02*
X109904762Y-96121119D01*
X110190476Y-96121119D02*
X110190476Y-95121119D01*
X110190476Y-95121119D02*
X110095238Y-95263976D01*
X110095238Y-95263976D02*
X110000000Y-95359214D01*
X110000000Y-95359214D02*
X109904762Y-95406833D01*
X111095238Y-95121119D02*
X111190476Y-95121119D01*
X111190476Y-95121119D02*
X111285714Y-95168738D01*
X111285714Y-95168738D02*
X111333333Y-95216357D01*
X111333333Y-95216357D02*
X111380952Y-95311595D01*
X111380952Y-95311595D02*
X111428571Y-95502071D01*
X111428571Y-95502071D02*
X111428571Y-95740166D01*
X111428571Y-95740166D02*
X111380952Y-95930642D01*
X111380952Y-95930642D02*
X111333333Y-96025880D01*
X111333333Y-96025880D02*
X111285714Y-96073500D01*
X111285714Y-96073500D02*
X111190476Y-96121119D01*
X111190476Y-96121119D02*
X111095238Y-96121119D01*
X111095238Y-96121119D02*
X111000000Y-96073500D01*
X111000000Y-96073500D02*
X110952381Y-96025880D01*
X110952381Y-96025880D02*
X110904762Y-95930642D01*
X110904762Y-95930642D02*
X110857143Y-95740166D01*
X110857143Y-95740166D02*
X110857143Y-95502071D01*
X110857143Y-95502071D02*
X110904762Y-95311595D01*
X110904762Y-95311595D02*
X110952381Y-95216357D01*
X110952381Y-95216357D02*
X111000000Y-95168738D01*
X111000000Y-95168738D02*
X111095238Y-95121119D01*
X112047619Y-95121119D02*
X112142857Y-95121119D01*
X112142857Y-95121119D02*
X112238095Y-95168738D01*
X112238095Y-95168738D02*
X112285714Y-95216357D01*
X112285714Y-95216357D02*
X112333333Y-95311595D01*
X112333333Y-95311595D02*
X112380952Y-95502071D01*
X112380952Y-95502071D02*
X112380952Y-95740166D01*
X112380952Y-95740166D02*
X112333333Y-95930642D01*
X112333333Y-95930642D02*
X112285714Y-96025880D01*
X112285714Y-96025880D02*
X112238095Y-96073500D01*
X112238095Y-96073500D02*
X112142857Y-96121119D01*
X112142857Y-96121119D02*
X112047619Y-96121119D01*
X112047619Y-96121119D02*
X111952381Y-96073500D01*
X111952381Y-96073500D02*
X111904762Y-96025880D01*
X111904762Y-96025880D02*
X111857143Y-95930642D01*
X111857143Y-95930642D02*
X111809524Y-95740166D01*
X111809524Y-95740166D02*
X111809524Y-95502071D01*
X111809524Y-95502071D02*
X111857143Y-95311595D01*
X111857143Y-95311595D02*
X111904762Y-95216357D01*
X111904762Y-95216357D02*
X111952381Y-95168738D01*
X111952381Y-95168738D02*
X112047619Y-95121119D01*
X112666667Y-95121119D02*
X113000000Y-96121119D01*
X113000000Y-96121119D02*
X113333333Y-95121119D01*
D11*
X130640476Y-98312295D02*
X130640476Y-98959914D01*
X130640476Y-98959914D02*
X130678571Y-99036104D01*
X130678571Y-99036104D02*
X130716666Y-99074200D01*
X130716666Y-99074200D02*
X130792857Y-99112295D01*
X130792857Y-99112295D02*
X130945238Y-99112295D01*
X130945238Y-99112295D02*
X131021428Y-99074200D01*
X131021428Y-99074200D02*
X131059523Y-99036104D01*
X131059523Y-99036104D02*
X131097619Y-98959914D01*
X131097619Y-98959914D02*
X131097619Y-98312295D01*
X131897618Y-99112295D02*
X131440475Y-99112295D01*
X131669047Y-99112295D02*
X131669047Y-98312295D01*
X131669047Y-98312295D02*
X131592856Y-98426580D01*
X131592856Y-98426580D02*
X131516666Y-98502771D01*
X131516666Y-98502771D02*
X131440475Y-98540866D01*
X118238095Y-83752438D02*
X118142857Y-83704819D01*
X118142857Y-83704819D02*
X118000000Y-83704819D01*
X118000000Y-83704819D02*
X117857143Y-83752438D01*
X117857143Y-83752438D02*
X117761905Y-83847676D01*
X117761905Y-83847676D02*
X117714286Y-83942914D01*
X117714286Y-83942914D02*
X117666667Y-84133390D01*
X117666667Y-84133390D02*
X117666667Y-84276247D01*
X117666667Y-84276247D02*
X117714286Y-84466723D01*
X117714286Y-84466723D02*
X117761905Y-84561961D01*
X117761905Y-84561961D02*
X117857143Y-84657200D01*
X117857143Y-84657200D02*
X118000000Y-84704819D01*
X118000000Y-84704819D02*
X118095238Y-84704819D01*
X118095238Y-84704819D02*
X118238095Y-84657200D01*
X118238095Y-84657200D02*
X118285714Y-84609580D01*
X118285714Y-84609580D02*
X118285714Y-84276247D01*
X118285714Y-84276247D02*
X118095238Y-84276247D01*
X118714286Y-84704819D02*
X118714286Y-83704819D01*
X118714286Y-83704819D02*
X119285714Y-84704819D01*
X119285714Y-84704819D02*
X119285714Y-83704819D01*
X119761905Y-84704819D02*
X119761905Y-83704819D01*
X119761905Y-83704819D02*
X120000000Y-83704819D01*
X120000000Y-83704819D02*
X120142857Y-83752438D01*
X120142857Y-83752438D02*
X120238095Y-83847676D01*
X120238095Y-83847676D02*
X120285714Y-83942914D01*
X120285714Y-83942914D02*
X120333333Y-84133390D01*
X120333333Y-84133390D02*
X120333333Y-84276247D01*
X120333333Y-84276247D02*
X120285714Y-84466723D01*
X120285714Y-84466723D02*
X120238095Y-84561961D01*
X120238095Y-84561961D02*
X120142857Y-84657200D01*
X120142857Y-84657200D02*
X120000000Y-84704819D01*
X120000000Y-84704819D02*
X119761905Y-84704819D01*
X117976191Y-100704819D02*
X118309524Y-101704819D01*
X118309524Y-101704819D02*
X118642857Y-100704819D01*
X118976191Y-101704819D02*
X118976191Y-101038152D01*
X118976191Y-100704819D02*
X118928572Y-100752438D01*
X118928572Y-100752438D02*
X118976191Y-100800057D01*
X118976191Y-100800057D02*
X119023810Y-100752438D01*
X119023810Y-100752438D02*
X118976191Y-100704819D01*
X118976191Y-100704819D02*
X118976191Y-100800057D01*
X119452381Y-101038152D02*
X119452381Y-101704819D01*
X119452381Y-101133390D02*
X119500000Y-101085771D01*
X119500000Y-101085771D02*
X119595238Y-101038152D01*
X119595238Y-101038152D02*
X119738095Y-101038152D01*
X119738095Y-101038152D02*
X119833333Y-101085771D01*
X119833333Y-101085771D02*
X119880952Y-101181009D01*
X119880952Y-101181009D02*
X119880952Y-101704819D01*
X145038095Y-100752438D02*
X144942857Y-100704819D01*
X144942857Y-100704819D02*
X144800000Y-100704819D01*
X144800000Y-100704819D02*
X144657143Y-100752438D01*
X144657143Y-100752438D02*
X144561905Y-100847676D01*
X144561905Y-100847676D02*
X144514286Y-100942914D01*
X144514286Y-100942914D02*
X144466667Y-101133390D01*
X144466667Y-101133390D02*
X144466667Y-101276247D01*
X144466667Y-101276247D02*
X144514286Y-101466723D01*
X144514286Y-101466723D02*
X144561905Y-101561961D01*
X144561905Y-101561961D02*
X144657143Y-101657200D01*
X144657143Y-101657200D02*
X144800000Y-101704819D01*
X144800000Y-101704819D02*
X144895238Y-101704819D01*
X144895238Y-101704819D02*
X145038095Y-101657200D01*
X145038095Y-101657200D02*
X145085714Y-101609580D01*
X145085714Y-101609580D02*
X145085714Y-101276247D01*
X145085714Y-101276247D02*
X144895238Y-101276247D01*
X145514286Y-101704819D02*
X145514286Y-100704819D01*
X145514286Y-100704819D02*
X146085714Y-101704819D01*
X146085714Y-101704819D02*
X146085714Y-100704819D01*
X146561905Y-101704819D02*
X146561905Y-100704819D01*
X146561905Y-100704819D02*
X146800000Y-100704819D01*
X146800000Y-100704819D02*
X146942857Y-100752438D01*
X146942857Y-100752438D02*
X147038095Y-100847676D01*
X147038095Y-100847676D02*
X147085714Y-100942914D01*
X147085714Y-100942914D02*
X147133333Y-101133390D01*
X147133333Y-101133390D02*
X147133333Y-101276247D01*
X147133333Y-101276247D02*
X147085714Y-101466723D01*
X147085714Y-101466723D02*
X147038095Y-101561961D01*
X147038095Y-101561961D02*
X146942857Y-101657200D01*
X146942857Y-101657200D02*
X146800000Y-101704819D01*
X146800000Y-101704819D02*
X146561905Y-101704819D01*
X145809523Y-83704819D02*
X145333333Y-83704819D01*
X145333333Y-83704819D02*
X145285714Y-84181009D01*
X145285714Y-84181009D02*
X145333333Y-84133390D01*
X145333333Y-84133390D02*
X145428571Y-84085771D01*
X145428571Y-84085771D02*
X145666666Y-84085771D01*
X145666666Y-84085771D02*
X145761904Y-84133390D01*
X145761904Y-84133390D02*
X145809523Y-84181009D01*
X145809523Y-84181009D02*
X145857142Y-84276247D01*
X145857142Y-84276247D02*
X145857142Y-84514342D01*
X145857142Y-84514342D02*
X145809523Y-84609580D01*
X145809523Y-84609580D02*
X145761904Y-84657200D01*
X145761904Y-84657200D02*
X145666666Y-84704819D01*
X145666666Y-84704819D02*
X145428571Y-84704819D01*
X145428571Y-84704819D02*
X145333333Y-84657200D01*
X145333333Y-84657200D02*
X145285714Y-84609580D01*
X146142857Y-83704819D02*
X146476190Y-84704819D01*
X146476190Y-84704819D02*
X146809523Y-83704819D01*
X149733333Y-94562295D02*
X149733333Y-95133723D01*
X149733333Y-95133723D02*
X149695238Y-95248009D01*
X149695238Y-95248009D02*
X149619047Y-95324200D01*
X149619047Y-95324200D02*
X149504762Y-95362295D01*
X149504762Y-95362295D02*
X149428571Y-95362295D01*
X150533333Y-95362295D02*
X150076190Y-95362295D01*
X150304762Y-95362295D02*
X150304762Y-94562295D01*
X150304762Y-94562295D02*
X150228571Y-94676580D01*
X150228571Y-94676580D02*
X150152381Y-94752771D01*
X150152381Y-94752771D02*
X150076190Y-94790866D01*
X133116667Y-100112295D02*
X132850000Y-99731342D01*
X132659524Y-100112295D02*
X132659524Y-99312295D01*
X132659524Y-99312295D02*
X132964286Y-99312295D01*
X132964286Y-99312295D02*
X133040476Y-99350390D01*
X133040476Y-99350390D02*
X133078571Y-99388485D01*
X133078571Y-99388485D02*
X133116667Y-99464676D01*
X133116667Y-99464676D02*
X133116667Y-99578961D01*
X133116667Y-99578961D02*
X133078571Y-99655152D01*
X133078571Y-99655152D02*
X133040476Y-99693247D01*
X133040476Y-99693247D02*
X132964286Y-99731342D01*
X132964286Y-99731342D02*
X132659524Y-99731342D01*
X133573809Y-99655152D02*
X133497619Y-99617057D01*
X133497619Y-99617057D02*
X133459524Y-99578961D01*
X133459524Y-99578961D02*
X133421428Y-99502771D01*
X133421428Y-99502771D02*
X133421428Y-99464676D01*
X133421428Y-99464676D02*
X133459524Y-99388485D01*
X133459524Y-99388485D02*
X133497619Y-99350390D01*
X133497619Y-99350390D02*
X133573809Y-99312295D01*
X133573809Y-99312295D02*
X133726190Y-99312295D01*
X133726190Y-99312295D02*
X133802381Y-99350390D01*
X133802381Y-99350390D02*
X133840476Y-99388485D01*
X133840476Y-99388485D02*
X133878571Y-99464676D01*
X133878571Y-99464676D02*
X133878571Y-99502771D01*
X133878571Y-99502771D02*
X133840476Y-99578961D01*
X133840476Y-99578961D02*
X133802381Y-99617057D01*
X133802381Y-99617057D02*
X133726190Y-99655152D01*
X133726190Y-99655152D02*
X133573809Y-99655152D01*
X133573809Y-99655152D02*
X133497619Y-99693247D01*
X133497619Y-99693247D02*
X133459524Y-99731342D01*
X133459524Y-99731342D02*
X133421428Y-99807533D01*
X133421428Y-99807533D02*
X133421428Y-99959914D01*
X133421428Y-99959914D02*
X133459524Y-100036104D01*
X133459524Y-100036104D02*
X133497619Y-100074200D01*
X133497619Y-100074200D02*
X133573809Y-100112295D01*
X133573809Y-100112295D02*
X133726190Y-100112295D01*
X133726190Y-100112295D02*
X133802381Y-100074200D01*
X133802381Y-100074200D02*
X133840476Y-100036104D01*
X133840476Y-100036104D02*
X133878571Y-99959914D01*
X133878571Y-99959914D02*
X133878571Y-99807533D01*
X133878571Y-99807533D02*
X133840476Y-99731342D01*
X133840476Y-99731342D02*
X133802381Y-99693247D01*
X133802381Y-99693247D02*
X133726190Y-99655152D01*
X136766667Y-97862295D02*
X136500000Y-97481342D01*
X136309524Y-97862295D02*
X136309524Y-97062295D01*
X136309524Y-97062295D02*
X136614286Y-97062295D01*
X136614286Y-97062295D02*
X136690476Y-97100390D01*
X136690476Y-97100390D02*
X136728571Y-97138485D01*
X136728571Y-97138485D02*
X136766667Y-97214676D01*
X136766667Y-97214676D02*
X136766667Y-97328961D01*
X136766667Y-97328961D02*
X136728571Y-97405152D01*
X136728571Y-97405152D02*
X136690476Y-97443247D01*
X136690476Y-97443247D02*
X136614286Y-97481342D01*
X136614286Y-97481342D02*
X136309524Y-97481342D01*
X137033333Y-97062295D02*
X137566667Y-97062295D01*
X137566667Y-97062295D02*
X137223809Y-97862295D01*
X134766667Y-94762295D02*
X134500000Y-94381342D01*
X134309524Y-94762295D02*
X134309524Y-93962295D01*
X134309524Y-93962295D02*
X134614286Y-93962295D01*
X134614286Y-93962295D02*
X134690476Y-94000390D01*
X134690476Y-94000390D02*
X134728571Y-94038485D01*
X134728571Y-94038485D02*
X134766667Y-94114676D01*
X134766667Y-94114676D02*
X134766667Y-94228961D01*
X134766667Y-94228961D02*
X134728571Y-94305152D01*
X134728571Y-94305152D02*
X134690476Y-94343247D01*
X134690476Y-94343247D02*
X134614286Y-94381342D01*
X134614286Y-94381342D02*
X134309524Y-94381342D01*
X135452381Y-93962295D02*
X135300000Y-93962295D01*
X135300000Y-93962295D02*
X135223809Y-94000390D01*
X135223809Y-94000390D02*
X135185714Y-94038485D01*
X135185714Y-94038485D02*
X135109524Y-94152771D01*
X135109524Y-94152771D02*
X135071428Y-94305152D01*
X135071428Y-94305152D02*
X135071428Y-94609914D01*
X135071428Y-94609914D02*
X135109524Y-94686104D01*
X135109524Y-94686104D02*
X135147619Y-94724200D01*
X135147619Y-94724200D02*
X135223809Y-94762295D01*
X135223809Y-94762295D02*
X135376190Y-94762295D01*
X135376190Y-94762295D02*
X135452381Y-94724200D01*
X135452381Y-94724200D02*
X135490476Y-94686104D01*
X135490476Y-94686104D02*
X135528571Y-94609914D01*
X135528571Y-94609914D02*
X135528571Y-94419438D01*
X135528571Y-94419438D02*
X135490476Y-94343247D01*
X135490476Y-94343247D02*
X135452381Y-94305152D01*
X135452381Y-94305152D02*
X135376190Y-94267057D01*
X135376190Y-94267057D02*
X135223809Y-94267057D01*
X135223809Y-94267057D02*
X135147619Y-94305152D01*
X135147619Y-94305152D02*
X135109524Y-94343247D01*
X135109524Y-94343247D02*
X135071428Y-94419438D01*
X126566667Y-100262295D02*
X126300000Y-99881342D01*
X126109524Y-100262295D02*
X126109524Y-99462295D01*
X126109524Y-99462295D02*
X126414286Y-99462295D01*
X126414286Y-99462295D02*
X126490476Y-99500390D01*
X126490476Y-99500390D02*
X126528571Y-99538485D01*
X126528571Y-99538485D02*
X126566667Y-99614676D01*
X126566667Y-99614676D02*
X126566667Y-99728961D01*
X126566667Y-99728961D02*
X126528571Y-99805152D01*
X126528571Y-99805152D02*
X126490476Y-99843247D01*
X126490476Y-99843247D02*
X126414286Y-99881342D01*
X126414286Y-99881342D02*
X126109524Y-99881342D01*
X126833333Y-99462295D02*
X127328571Y-99462295D01*
X127328571Y-99462295D02*
X127061905Y-99767057D01*
X127061905Y-99767057D02*
X127176190Y-99767057D01*
X127176190Y-99767057D02*
X127252381Y-99805152D01*
X127252381Y-99805152D02*
X127290476Y-99843247D01*
X127290476Y-99843247D02*
X127328571Y-99919438D01*
X127328571Y-99919438D02*
X127328571Y-100109914D01*
X127328571Y-100109914D02*
X127290476Y-100186104D01*
X127290476Y-100186104D02*
X127252381Y-100224200D01*
X127252381Y-100224200D02*
X127176190Y-100262295D01*
X127176190Y-100262295D02*
X126947619Y-100262295D01*
X126947619Y-100262295D02*
X126871428Y-100224200D01*
X126871428Y-100224200D02*
X126833333Y-100186104D01*
X123266667Y-98862295D02*
X123000000Y-98481342D01*
X122809524Y-98862295D02*
X122809524Y-98062295D01*
X122809524Y-98062295D02*
X123114286Y-98062295D01*
X123114286Y-98062295D02*
X123190476Y-98100390D01*
X123190476Y-98100390D02*
X123228571Y-98138485D01*
X123228571Y-98138485D02*
X123266667Y-98214676D01*
X123266667Y-98214676D02*
X123266667Y-98328961D01*
X123266667Y-98328961D02*
X123228571Y-98405152D01*
X123228571Y-98405152D02*
X123190476Y-98443247D01*
X123190476Y-98443247D02*
X123114286Y-98481342D01*
X123114286Y-98481342D02*
X122809524Y-98481342D01*
X123571428Y-98138485D02*
X123609524Y-98100390D01*
X123609524Y-98100390D02*
X123685714Y-98062295D01*
X123685714Y-98062295D02*
X123876190Y-98062295D01*
X123876190Y-98062295D02*
X123952381Y-98100390D01*
X123952381Y-98100390D02*
X123990476Y-98138485D01*
X123990476Y-98138485D02*
X124028571Y-98214676D01*
X124028571Y-98214676D02*
X124028571Y-98290866D01*
X124028571Y-98290866D02*
X123990476Y-98405152D01*
X123990476Y-98405152D02*
X123533333Y-98862295D01*
X123533333Y-98862295D02*
X124028571Y-98862295D01*
X122266667Y-96862295D02*
X122000000Y-96481342D01*
X121809524Y-96862295D02*
X121809524Y-96062295D01*
X121809524Y-96062295D02*
X122114286Y-96062295D01*
X122114286Y-96062295D02*
X122190476Y-96100390D01*
X122190476Y-96100390D02*
X122228571Y-96138485D01*
X122228571Y-96138485D02*
X122266667Y-96214676D01*
X122266667Y-96214676D02*
X122266667Y-96328961D01*
X122266667Y-96328961D02*
X122228571Y-96405152D01*
X122228571Y-96405152D02*
X122190476Y-96443247D01*
X122190476Y-96443247D02*
X122114286Y-96481342D01*
X122114286Y-96481342D02*
X121809524Y-96481342D01*
X123028571Y-96862295D02*
X122571428Y-96862295D01*
X122800000Y-96862295D02*
X122800000Y-96062295D01*
X122800000Y-96062295D02*
X122723809Y-96176580D01*
X122723809Y-96176580D02*
X122647619Y-96252771D01*
X122647619Y-96252771D02*
X122571428Y-96290866D01*
X142866666Y-83962295D02*
X142485714Y-83962295D01*
X142485714Y-83962295D02*
X142485714Y-83162295D01*
X143552380Y-83962295D02*
X143095237Y-83962295D01*
X143323809Y-83962295D02*
X143323809Y-83162295D01*
X143323809Y-83162295D02*
X143247618Y-83276580D01*
X143247618Y-83276580D02*
X143171428Y-83352771D01*
X143171428Y-83352771D02*
X143095237Y-83390866D01*
X110983333Y-83812295D02*
X110983333Y-84383723D01*
X110983333Y-84383723D02*
X110945238Y-84498009D01*
X110945238Y-84498009D02*
X110869047Y-84574200D01*
X110869047Y-84574200D02*
X110754762Y-84612295D01*
X110754762Y-84612295D02*
X110678571Y-84612295D01*
X111326190Y-83888485D02*
X111364286Y-83850390D01*
X111364286Y-83850390D02*
X111440476Y-83812295D01*
X111440476Y-83812295D02*
X111630952Y-83812295D01*
X111630952Y-83812295D02*
X111707143Y-83850390D01*
X111707143Y-83850390D02*
X111745238Y-83888485D01*
X111745238Y-83888485D02*
X111783333Y-83964676D01*
X111783333Y-83964676D02*
X111783333Y-84040866D01*
X111783333Y-84040866D02*
X111745238Y-84155152D01*
X111745238Y-84155152D02*
X111288095Y-84612295D01*
X111288095Y-84612295D02*
X111783333Y-84612295D01*
X124109524Y-88462295D02*
X124109524Y-87662295D01*
X124109524Y-87662295D02*
X124300000Y-87662295D01*
X124300000Y-87662295D02*
X124414286Y-87700390D01*
X124414286Y-87700390D02*
X124490476Y-87776580D01*
X124490476Y-87776580D02*
X124528571Y-87852771D01*
X124528571Y-87852771D02*
X124566667Y-88005152D01*
X124566667Y-88005152D02*
X124566667Y-88119438D01*
X124566667Y-88119438D02*
X124528571Y-88271819D01*
X124528571Y-88271819D02*
X124490476Y-88348009D01*
X124490476Y-88348009D02*
X124414286Y-88424200D01*
X124414286Y-88424200D02*
X124300000Y-88462295D01*
X124300000Y-88462295D02*
X124109524Y-88462295D01*
X125328571Y-88462295D02*
X124871428Y-88462295D01*
X125100000Y-88462295D02*
X125100000Y-87662295D01*
X125100000Y-87662295D02*
X125023809Y-87776580D01*
X125023809Y-87776580D02*
X124947619Y-87852771D01*
X124947619Y-87852771D02*
X124871428Y-87890866D01*
X146266667Y-93386104D02*
X146228571Y-93424200D01*
X146228571Y-93424200D02*
X146114286Y-93462295D01*
X146114286Y-93462295D02*
X146038095Y-93462295D01*
X146038095Y-93462295D02*
X145923809Y-93424200D01*
X145923809Y-93424200D02*
X145847619Y-93348009D01*
X145847619Y-93348009D02*
X145809524Y-93271819D01*
X145809524Y-93271819D02*
X145771428Y-93119438D01*
X145771428Y-93119438D02*
X145771428Y-93005152D01*
X145771428Y-93005152D02*
X145809524Y-92852771D01*
X145809524Y-92852771D02*
X145847619Y-92776580D01*
X145847619Y-92776580D02*
X145923809Y-92700390D01*
X145923809Y-92700390D02*
X146038095Y-92662295D01*
X146038095Y-92662295D02*
X146114286Y-92662295D01*
X146114286Y-92662295D02*
X146228571Y-92700390D01*
X146228571Y-92700390D02*
X146266667Y-92738485D01*
X146723809Y-93005152D02*
X146647619Y-92967057D01*
X146647619Y-92967057D02*
X146609524Y-92928961D01*
X146609524Y-92928961D02*
X146571428Y-92852771D01*
X146571428Y-92852771D02*
X146571428Y-92814676D01*
X146571428Y-92814676D02*
X146609524Y-92738485D01*
X146609524Y-92738485D02*
X146647619Y-92700390D01*
X146647619Y-92700390D02*
X146723809Y-92662295D01*
X146723809Y-92662295D02*
X146876190Y-92662295D01*
X146876190Y-92662295D02*
X146952381Y-92700390D01*
X146952381Y-92700390D02*
X146990476Y-92738485D01*
X146990476Y-92738485D02*
X147028571Y-92814676D01*
X147028571Y-92814676D02*
X147028571Y-92852771D01*
X147028571Y-92852771D02*
X146990476Y-92928961D01*
X146990476Y-92928961D02*
X146952381Y-92967057D01*
X146952381Y-92967057D02*
X146876190Y-93005152D01*
X146876190Y-93005152D02*
X146723809Y-93005152D01*
X146723809Y-93005152D02*
X146647619Y-93043247D01*
X146647619Y-93043247D02*
X146609524Y-93081342D01*
X146609524Y-93081342D02*
X146571428Y-93157533D01*
X146571428Y-93157533D02*
X146571428Y-93309914D01*
X146571428Y-93309914D02*
X146609524Y-93386104D01*
X146609524Y-93386104D02*
X146647619Y-93424200D01*
X146647619Y-93424200D02*
X146723809Y-93462295D01*
X146723809Y-93462295D02*
X146876190Y-93462295D01*
X146876190Y-93462295D02*
X146952381Y-93424200D01*
X146952381Y-93424200D02*
X146990476Y-93386104D01*
X146990476Y-93386104D02*
X147028571Y-93309914D01*
X147028571Y-93309914D02*
X147028571Y-93157533D01*
X147028571Y-93157533D02*
X146990476Y-93081342D01*
X146990476Y-93081342D02*
X146952381Y-93043247D01*
X146952381Y-93043247D02*
X146876190Y-93005152D01*
X143866667Y-93348604D02*
X143828571Y-93386700D01*
X143828571Y-93386700D02*
X143714286Y-93424795D01*
X143714286Y-93424795D02*
X143638095Y-93424795D01*
X143638095Y-93424795D02*
X143523809Y-93386700D01*
X143523809Y-93386700D02*
X143447619Y-93310509D01*
X143447619Y-93310509D02*
X143409524Y-93234319D01*
X143409524Y-93234319D02*
X143371428Y-93081938D01*
X143371428Y-93081938D02*
X143371428Y-92967652D01*
X143371428Y-92967652D02*
X143409524Y-92815271D01*
X143409524Y-92815271D02*
X143447619Y-92739080D01*
X143447619Y-92739080D02*
X143523809Y-92662890D01*
X143523809Y-92662890D02*
X143638095Y-92624795D01*
X143638095Y-92624795D02*
X143714286Y-92624795D01*
X143714286Y-92624795D02*
X143828571Y-92662890D01*
X143828571Y-92662890D02*
X143866667Y-92700985D01*
X144133333Y-92624795D02*
X144666667Y-92624795D01*
X144666667Y-92624795D02*
X144323809Y-93424795D01*
X139166667Y-93686104D02*
X139128571Y-93724200D01*
X139128571Y-93724200D02*
X139014286Y-93762295D01*
X139014286Y-93762295D02*
X138938095Y-93762295D01*
X138938095Y-93762295D02*
X138823809Y-93724200D01*
X138823809Y-93724200D02*
X138747619Y-93648009D01*
X138747619Y-93648009D02*
X138709524Y-93571819D01*
X138709524Y-93571819D02*
X138671428Y-93419438D01*
X138671428Y-93419438D02*
X138671428Y-93305152D01*
X138671428Y-93305152D02*
X138709524Y-93152771D01*
X138709524Y-93152771D02*
X138747619Y-93076580D01*
X138747619Y-93076580D02*
X138823809Y-93000390D01*
X138823809Y-93000390D02*
X138938095Y-92962295D01*
X138938095Y-92962295D02*
X139014286Y-92962295D01*
X139014286Y-92962295D02*
X139128571Y-93000390D01*
X139128571Y-93000390D02*
X139166667Y-93038485D01*
X139852381Y-92962295D02*
X139700000Y-92962295D01*
X139700000Y-92962295D02*
X139623809Y-93000390D01*
X139623809Y-93000390D02*
X139585714Y-93038485D01*
X139585714Y-93038485D02*
X139509524Y-93152771D01*
X139509524Y-93152771D02*
X139471428Y-93305152D01*
X139471428Y-93305152D02*
X139471428Y-93609914D01*
X139471428Y-93609914D02*
X139509524Y-93686104D01*
X139509524Y-93686104D02*
X139547619Y-93724200D01*
X139547619Y-93724200D02*
X139623809Y-93762295D01*
X139623809Y-93762295D02*
X139776190Y-93762295D01*
X139776190Y-93762295D02*
X139852381Y-93724200D01*
X139852381Y-93724200D02*
X139890476Y-93686104D01*
X139890476Y-93686104D02*
X139928571Y-93609914D01*
X139928571Y-93609914D02*
X139928571Y-93419438D01*
X139928571Y-93419438D02*
X139890476Y-93343247D01*
X139890476Y-93343247D02*
X139852381Y-93305152D01*
X139852381Y-93305152D02*
X139776190Y-93267057D01*
X139776190Y-93267057D02*
X139623809Y-93267057D01*
X139623809Y-93267057D02*
X139547619Y-93305152D01*
X139547619Y-93305152D02*
X139509524Y-93343247D01*
X139509524Y-93343247D02*
X139471428Y-93419438D01*
X137366667Y-95986104D02*
X137328571Y-96024200D01*
X137328571Y-96024200D02*
X137214286Y-96062295D01*
X137214286Y-96062295D02*
X137138095Y-96062295D01*
X137138095Y-96062295D02*
X137023809Y-96024200D01*
X137023809Y-96024200D02*
X136947619Y-95948009D01*
X136947619Y-95948009D02*
X136909524Y-95871819D01*
X136909524Y-95871819D02*
X136871428Y-95719438D01*
X136871428Y-95719438D02*
X136871428Y-95605152D01*
X136871428Y-95605152D02*
X136909524Y-95452771D01*
X136909524Y-95452771D02*
X136947619Y-95376580D01*
X136947619Y-95376580D02*
X137023809Y-95300390D01*
X137023809Y-95300390D02*
X137138095Y-95262295D01*
X137138095Y-95262295D02*
X137214286Y-95262295D01*
X137214286Y-95262295D02*
X137328571Y-95300390D01*
X137328571Y-95300390D02*
X137366667Y-95338485D01*
X138090476Y-95262295D02*
X137709524Y-95262295D01*
X137709524Y-95262295D02*
X137671428Y-95643247D01*
X137671428Y-95643247D02*
X137709524Y-95605152D01*
X137709524Y-95605152D02*
X137785714Y-95567057D01*
X137785714Y-95567057D02*
X137976190Y-95567057D01*
X137976190Y-95567057D02*
X138052381Y-95605152D01*
X138052381Y-95605152D02*
X138090476Y-95643247D01*
X138090476Y-95643247D02*
X138128571Y-95719438D01*
X138128571Y-95719438D02*
X138128571Y-95909914D01*
X138128571Y-95909914D02*
X138090476Y-95986104D01*
X138090476Y-95986104D02*
X138052381Y-96024200D01*
X138052381Y-96024200D02*
X137976190Y-96062295D01*
X137976190Y-96062295D02*
X137785714Y-96062295D01*
X137785714Y-96062295D02*
X137709524Y-96024200D01*
X137709524Y-96024200D02*
X137671428Y-95986104D01*
X133366667Y-96053604D02*
X133328571Y-96091700D01*
X133328571Y-96091700D02*
X133214286Y-96129795D01*
X133214286Y-96129795D02*
X133138095Y-96129795D01*
X133138095Y-96129795D02*
X133023809Y-96091700D01*
X133023809Y-96091700D02*
X132947619Y-96015509D01*
X132947619Y-96015509D02*
X132909524Y-95939319D01*
X132909524Y-95939319D02*
X132871428Y-95786938D01*
X132871428Y-95786938D02*
X132871428Y-95672652D01*
X132871428Y-95672652D02*
X132909524Y-95520271D01*
X132909524Y-95520271D02*
X132947619Y-95444080D01*
X132947619Y-95444080D02*
X133023809Y-95367890D01*
X133023809Y-95367890D02*
X133138095Y-95329795D01*
X133138095Y-95329795D02*
X133214286Y-95329795D01*
X133214286Y-95329795D02*
X133328571Y-95367890D01*
X133328571Y-95367890D02*
X133366667Y-95405985D01*
X134052381Y-95596461D02*
X134052381Y-96129795D01*
X133861905Y-95291700D02*
X133671428Y-95863128D01*
X133671428Y-95863128D02*
X134166667Y-95863128D01*
X124366667Y-92036104D02*
X124328571Y-92074200D01*
X124328571Y-92074200D02*
X124214286Y-92112295D01*
X124214286Y-92112295D02*
X124138095Y-92112295D01*
X124138095Y-92112295D02*
X124023809Y-92074200D01*
X124023809Y-92074200D02*
X123947619Y-91998009D01*
X123947619Y-91998009D02*
X123909524Y-91921819D01*
X123909524Y-91921819D02*
X123871428Y-91769438D01*
X123871428Y-91769438D02*
X123871428Y-91655152D01*
X123871428Y-91655152D02*
X123909524Y-91502771D01*
X123909524Y-91502771D02*
X123947619Y-91426580D01*
X123947619Y-91426580D02*
X124023809Y-91350390D01*
X124023809Y-91350390D02*
X124138095Y-91312295D01*
X124138095Y-91312295D02*
X124214286Y-91312295D01*
X124214286Y-91312295D02*
X124328571Y-91350390D01*
X124328571Y-91350390D02*
X124366667Y-91388485D01*
X124633333Y-91312295D02*
X125128571Y-91312295D01*
X125128571Y-91312295D02*
X124861905Y-91617057D01*
X124861905Y-91617057D02*
X124976190Y-91617057D01*
X124976190Y-91617057D02*
X125052381Y-91655152D01*
X125052381Y-91655152D02*
X125090476Y-91693247D01*
X125090476Y-91693247D02*
X125128571Y-91769438D01*
X125128571Y-91769438D02*
X125128571Y-91959914D01*
X125128571Y-91959914D02*
X125090476Y-92036104D01*
X125090476Y-92036104D02*
X125052381Y-92074200D01*
X125052381Y-92074200D02*
X124976190Y-92112295D01*
X124976190Y-92112295D02*
X124747619Y-92112295D01*
X124747619Y-92112295D02*
X124671428Y-92074200D01*
X124671428Y-92074200D02*
X124633333Y-92036104D01*
X121866667Y-90036104D02*
X121828571Y-90074200D01*
X121828571Y-90074200D02*
X121714286Y-90112295D01*
X121714286Y-90112295D02*
X121638095Y-90112295D01*
X121638095Y-90112295D02*
X121523809Y-90074200D01*
X121523809Y-90074200D02*
X121447619Y-89998009D01*
X121447619Y-89998009D02*
X121409524Y-89921819D01*
X121409524Y-89921819D02*
X121371428Y-89769438D01*
X121371428Y-89769438D02*
X121371428Y-89655152D01*
X121371428Y-89655152D02*
X121409524Y-89502771D01*
X121409524Y-89502771D02*
X121447619Y-89426580D01*
X121447619Y-89426580D02*
X121523809Y-89350390D01*
X121523809Y-89350390D02*
X121638095Y-89312295D01*
X121638095Y-89312295D02*
X121714286Y-89312295D01*
X121714286Y-89312295D02*
X121828571Y-89350390D01*
X121828571Y-89350390D02*
X121866667Y-89388485D01*
X122171428Y-89388485D02*
X122209524Y-89350390D01*
X122209524Y-89350390D02*
X122285714Y-89312295D01*
X122285714Y-89312295D02*
X122476190Y-89312295D01*
X122476190Y-89312295D02*
X122552381Y-89350390D01*
X122552381Y-89350390D02*
X122590476Y-89388485D01*
X122590476Y-89388485D02*
X122628571Y-89464676D01*
X122628571Y-89464676D02*
X122628571Y-89540866D01*
X122628571Y-89540866D02*
X122590476Y-89655152D01*
X122590476Y-89655152D02*
X122133333Y-90112295D01*
X122133333Y-90112295D02*
X122628571Y-90112295D01*
X118866667Y-96386104D02*
X118828571Y-96424200D01*
X118828571Y-96424200D02*
X118714286Y-96462295D01*
X118714286Y-96462295D02*
X118638095Y-96462295D01*
X118638095Y-96462295D02*
X118523809Y-96424200D01*
X118523809Y-96424200D02*
X118447619Y-96348009D01*
X118447619Y-96348009D02*
X118409524Y-96271819D01*
X118409524Y-96271819D02*
X118371428Y-96119438D01*
X118371428Y-96119438D02*
X118371428Y-96005152D01*
X118371428Y-96005152D02*
X118409524Y-95852771D01*
X118409524Y-95852771D02*
X118447619Y-95776580D01*
X118447619Y-95776580D02*
X118523809Y-95700390D01*
X118523809Y-95700390D02*
X118638095Y-95662295D01*
X118638095Y-95662295D02*
X118714286Y-95662295D01*
X118714286Y-95662295D02*
X118828571Y-95700390D01*
X118828571Y-95700390D02*
X118866667Y-95738485D01*
X119628571Y-96462295D02*
X119171428Y-96462295D01*
X119400000Y-96462295D02*
X119400000Y-95662295D01*
X119400000Y-95662295D02*
X119323809Y-95776580D01*
X119323809Y-95776580D02*
X119247619Y-95852771D01*
X119247619Y-95852771D02*
X119171428Y-95890866D01*
D12*
%TO.C,U1*%
X129047500Y-92840000D02*
X127097500Y-92840000D01*
X129047500Y-92840000D02*
X130997500Y-92840000D01*
X129047500Y-97960000D02*
X127097500Y-97960000D01*
X129047500Y-97960000D02*
X130997500Y-97960000D01*
X126347500Y-92935000D02*
X126107500Y-92605000D01*
X126587500Y-92605000D01*
X126347500Y-92935000D01*
G36*
X126347500Y-92935000D02*
G01*
X126107500Y-92605000D01*
X126587500Y-92605000D01*
X126347500Y-92935000D01*
G37*
%TO.C,TP4*%
X120450000Y-82000000D02*
G75*
G02*
X117550000Y-82000000I-1450000J0D01*
G01*
X117550000Y-82000000D02*
G75*
G02*
X120450000Y-82000000I1450000J0D01*
G01*
%TO.C,TP3*%
X120450000Y-99000000D02*
G75*
G02*
X117550000Y-99000000I-1450000J0D01*
G01*
X117550000Y-99000000D02*
G75*
G02*
X120450000Y-99000000I1450000J0D01*
G01*
%TO.C,TP2*%
X147250000Y-99000000D02*
G75*
G02*
X144350000Y-99000000I-1450000J0D01*
G01*
X144350000Y-99000000D02*
G75*
G02*
X147250000Y-99000000I1450000J0D01*
G01*
%TO.C,TP1*%
X147450000Y-82000000D02*
G75*
G02*
X144550000Y-82000000I-1450000J0D01*
G01*
X144550000Y-82000000D02*
G75*
G02*
X147450000Y-82000000I1450000J0D01*
G01*
%TO.C,J1*%
X156477500Y-86240000D02*
X156477500Y-93960000D01*
X155257500Y-86240000D02*
X155257500Y-87460000D01*
X148057500Y-86240000D02*
X156477500Y-86240000D01*
X155257500Y-87460000D02*
X150257500Y-87460000D01*
X151257500Y-87460000D02*
X151257500Y-92740000D01*
X150257500Y-87460000D02*
X150257500Y-86240000D01*
X150257500Y-87460000D02*
X148057500Y-87460000D01*
X148057500Y-87460000D02*
X148057500Y-86240000D01*
X154677500Y-88530000D02*
X154757500Y-88850000D01*
X151257500Y-88530000D02*
X154677500Y-88530000D01*
X147567500Y-88550000D02*
X147567500Y-89150000D01*
X154757500Y-88850000D02*
X154677500Y-89170000D01*
X151257500Y-88850000D02*
X151257500Y-88530000D01*
X148167500Y-88850000D02*
X147567500Y-88550000D01*
X147567500Y-89150000D02*
X148167500Y-88850000D01*
X154677500Y-89170000D02*
X151257500Y-89170000D01*
X151257500Y-89170000D02*
X151257500Y-88850000D01*
X150257500Y-90020000D02*
X150257500Y-90180000D01*
X154677500Y-91030000D02*
X154757500Y-91350000D01*
X151257500Y-91030000D02*
X154677500Y-91030000D01*
X154757500Y-91350000D02*
X154677500Y-91670000D01*
X151257500Y-91350000D02*
X151257500Y-91030000D01*
X154677500Y-91670000D02*
X151257500Y-91670000D01*
X151257500Y-91670000D02*
X151257500Y-91350000D01*
X155257500Y-92740000D02*
X150257500Y-92740000D01*
X150257500Y-92740000D02*
X150257500Y-93960000D01*
X148057500Y-92740000D02*
X150257500Y-92740000D01*
X156477500Y-93960000D02*
X148057500Y-93960000D01*
X155257500Y-93960000D02*
X155257500Y-92740000D01*
X148057500Y-93960000D02*
X148057500Y-92740000D01*
%TO.C,R8*%
X133680000Y-97832379D02*
X133680000Y-98167621D01*
X132920000Y-97832379D02*
X132920000Y-98167621D01*
%TO.C,R7*%
X135167621Y-97780000D02*
X134832379Y-97780000D01*
X135167621Y-97020000D02*
X134832379Y-97020000D01*
%TO.C,R6*%
X134932379Y-93020000D02*
X135267621Y-93020000D01*
X134932379Y-93780000D02*
X135267621Y-93780000D01*
%TO.C,R3*%
X126534879Y-98320000D02*
X126870121Y-98320000D01*
X126534879Y-99080000D02*
X126870121Y-99080000D01*
%TO.C,R2*%
X125080000Y-97732379D02*
X125080000Y-98067621D01*
X124320000Y-97732379D02*
X124320000Y-98067621D01*
%TO.C,R1*%
X123932379Y-95820000D02*
X124267621Y-95820000D01*
X123932379Y-96580000D02*
X124267621Y-96580000D01*
%TO.C,L1*%
X129840000Y-81990000D02*
X129840000Y-85040000D01*
X129840000Y-81990000D02*
X141960000Y-81990000D01*
X129840000Y-92610000D02*
X129840000Y-89560000D01*
X129840000Y-92610000D02*
X141960000Y-92610000D01*
X141960000Y-81990000D02*
X141960000Y-85040000D01*
X141960000Y-92610000D02*
X141960000Y-89560000D01*
%TO.C,J2*%
X107470000Y-92885000D02*
X106470000Y-91885000D01*
X116600000Y-92885000D02*
X107470000Y-92885000D01*
X106470000Y-91885000D02*
X106470000Y-86515000D01*
X106470000Y-86515000D02*
X107470000Y-85515000D01*
X107470000Y-85515000D02*
X116600000Y-85515000D01*
X116600000Y-85515000D02*
X116600000Y-92885000D01*
%TO.C,D1*%
X128950000Y-83590000D02*
X125650000Y-83590000D01*
X128950000Y-83590000D02*
X128950000Y-90600000D01*
X125650000Y-83590000D02*
X125650000Y-90600000D01*
%TO.C,C8*%
X147310000Y-89288748D02*
X147310000Y-90711252D01*
X145490000Y-89288748D02*
X145490000Y-90711252D01*
%TO.C,C7*%
X144910000Y-89288748D02*
X144910000Y-90711252D01*
X143090000Y-89288748D02*
X143090000Y-90711252D01*
%TO.C,C6*%
X137284165Y-93040000D02*
X137515835Y-93040000D01*
X137284165Y-93760000D02*
X137515835Y-93760000D01*
%TO.C,C5*%
X135940000Y-95148335D02*
X135940000Y-94916665D01*
X136660000Y-95148335D02*
X136660000Y-94916665D01*
%TO.C,C4*%
X132940000Y-94215835D02*
X132940000Y-93984165D01*
X133660000Y-94215835D02*
X133660000Y-93984165D01*
%TO.C,C3*%
X123990000Y-94046267D02*
X123990000Y-93753733D01*
X125010000Y-94046267D02*
X125010000Y-93753733D01*
%TO.C,C2*%
X120740000Y-93811252D02*
X120740000Y-92388748D01*
X123460000Y-93811252D02*
X123460000Y-92388748D01*
%TO.C,C1*%
X117440000Y-93811252D02*
X117440000Y-92388748D01*
X120160000Y-93811252D02*
X120160000Y-92388748D01*
%TD*%
M02*
