M48
; DRILL file {KiCad 9.0.0} date 2025-04-05T15:37:13+0530
; FORMAT={-:-/ absolute / metric / decimal}
; #@! TF.CreationDate,2025-04-05T15:37:13+05:30
; #@! TF.GenerationSoftware,Kicad,Pcbnew,9.0.0
; #@! TF.FileFunction,Plated,1,2,PTH
FMAT,2
METRIC
; #@! TA.AperFunction,Plated,PTH,ViaDrill
T1C0.300
; #@! TA.AperFunction,Plated,PTH,ComponentDrill
T2C0.500
; #@! TA.AperFunction,Plated,PTH,ComponentDrill
T3C1.000
; #@! TA.AperFunction,Plated,PTH,ComponentDrill
T4C1.020
; #@! TA.AperFunction,Plated,PTH,ComponentDrill
T5C1.200
%
G90
G05
T1
X107.5Y-82.5
X107.5Y-85.0
X107.5Y-87.5
X107.5Y-90.0
X107.5Y-92.5
X107.5Y-97.5
X112.5Y-77.5
X112.5Y-82.5
X112.5Y-97.5
X115.0Y-80.0
X115.0Y-85.0
X115.0Y-100.0
X115.0Y-102.5
X117.5Y-77.5
X117.5Y-87.5
X118.5Y-90.5
X119.5Y-90.5
X120.0Y-80.0
X120.0Y-102.5
X120.5Y-91.0
X120.5Y-92.0
X121.5Y-90.5
X122.491Y-90.483
X122.5Y-77.0
X122.5Y-82.5
X122.5Y-87.5
X123.5Y-90.5
X123.5Y-92.5
X124.25Y-99.25
X125.0Y-85.0
X125.0Y-102.5
X125.25Y-92.5
X125.25Y-99.25
X126.0Y-90.75
X126.0Y-91.5
X126.0Y-92.25
X127.5Y-77.0
X127.5Y-82.5
X128.25Y-93.5
X128.25Y-97.5
X128.25Y-98.5
X128.25Y-99.25
X128.5Y-89.25
X128.5Y-90.0
X128.5Y-90.75
X128.5Y-91.5
X128.5Y-92.25
X129.0Y-93.5
X129.0Y-97.5
X129.0Y-98.5
X129.0Y-99.25
X129.25Y-90.75
X129.25Y-91.5
X129.25Y-92.25
X129.75Y-97.5
X129.75Y-98.5
X129.75Y-99.25
X130.0Y-102.5
X131.1Y-79.9
X132.5Y-77.0
X132.5Y-98.5
X134.0Y-98.5
X135.0Y-102.5
X137.5Y-77.0
X137.5Y-100.0
X140.0Y-97.5
X140.0Y-102.5
X142.5Y-77.0
X142.5Y-95.0
X142.5Y-100.0
X142.75Y-91.25
X143.0Y-92.5
X145.0Y-80.0
X145.0Y-102.5
X145.25Y-91.0
X145.25Y-91.75
X145.25Y-92.5
X147.5Y-77.5
X147.5Y-92.5
X147.5Y-95.0
X147.5Y-100.0
X147.75Y-91.0
X150.0Y-80.0
X150.0Y-97.5
X150.0Y-102.5
X152.5Y-82.5
X152.5Y-95.0
X155.0Y-87.5
X155.0Y-92.5
X155.0Y-97.5
T2
X128.398Y-94.4
X128.398Y-95.4
X128.398Y-96.4
X129.697Y-94.4
X129.697Y-95.4
X129.697Y-96.4
T3
X149.667Y-88.85
X149.667Y-91.35
T4
X115.5Y-89.2
X118.5Y-89.2
T5
X119.0Y-82.0
X119.0Y-99.0
X145.8Y-99.0
X146.0Y-82.0
M30
